<mxfile host="app.diagrams.net" agent="Mozilla/5.0 (Windows NT 10.0; Win64; x64) AppleWebKit/537.36 (KHTML, like Gecko) Chrome/133.0.0.0 Safari/537.36" version="26.0.16">
  <diagram name="หน้า-1" id="_3rpfSkrhAUR1jn3zP2K">
    <mxGraphModel dx="4064" dy="1591" grid="1" gridSize="10" guides="1" tooltips="1" connect="1" arrows="1" fold="1" page="1" pageScale="1" pageWidth="827" pageHeight="1169" math="0" shadow="0">
      <root>
        <mxCell id="0" />
        <mxCell id="1" parent="0" />
        <UserObject label="" plantUmlData="{&#xa;  &quot;data&quot;: &quot;@startuml\n\n&#39; Define classes\nclass AccessControl {\n    - accessStrategy: AccessStrategy\n    - card: Card\n    - timeLogService: TimeLogService\n    + requestAccess(floorLevel: String, roomNumber: String): boolean\n}\n\ninterface AccessStrategy {\n    + checkAccess(card: Card, floorLevel: String, roomNumber: String): boolean\n}\n\nabstract class Card {\n    - ownerName: String\n    - ownerAge: int\n    - cardId: List&lt;String&gt;\n    - password: String\n    - active: boolean\n    - accessLevels: List&lt;String&gt;\n    + getOwnerName(): String\n    + setOwnerName(ownerName: String): void\n    + getOwnerAge(): int\n    + setOwnerAge(ownerAge: int): void\n    + getCardId(): List&lt;String&gt;\n    + setCardId(cardId: List&lt;String&gt;): void\n    + getPassword(): String\n    + setPassword(password: String): void\n    + isActive(): boolean\n    + setActive(active: boolean): void\n    + getAccessLevels(): List&lt;String&gt;\n    + setAccessLevels(accessLevels: List&lt;String&gt;): void\n    + getCardIdList(): List&lt;String&gt;\n    + getCardType(): String\n    + analyzeUsage(): void\n}\n\nclass AdminCard {\n    + getCardType(): String\n    + analyzeUsage(): void\n}\n\nclass EmployeeCard {\n    + getCardType(): String\n    + analyzeUsage(): void\n}\n\nclass VisitorCard {\n    + getCardType(): String\n    + analyzeUsage(): void\n}\n\nclass FloorAccessStrategy {\n    + checkAccess(card: Card, floorLevel: String, roomNumber: String): boolean\n}\n\nclass RoomAccessStrategy {\n    + checkAccess(card: Card, floorLevel: String, roomNumber: String): boolean\n}\n\nclass Admin {\n    - adminId: int\n    - cardDatabase: Map&lt;Integer, Card&gt;\n    + addCard(card: Card, accessLevels: List&lt;String&gt;): void\n    + findCard(cardId: int): Card\n    + revokeCard(card: Card): void\n    + modifyCard(card: Card, newOwnerName: String, newOwnerAge: int, newAccessLevels: List&lt;String&gt;): void\n}\n\nclass AuditService {\n    + log(message: String): void\n    + getLogs(): List&lt;String&gt;\n}\n\nclass Logger {\n    - instance: Logger\n    + getInstance(): Logger\n    + log(message: String): void\n}\n\nclass TimeLogService {\n    + canAccessNow(card: Card): boolean\n    + getAccessStatus(canAccess: boolean): String\n}\n\nclass CardManager {\n    + createCard(ownerName: String, ownerAge: int, password: String, cardType: String): Card\n}\n\nclass UserLogDecorator {\n    - logger: Logger\n    - userName: String\n    + log(message: String): void\n}\n\n&#39; Define relationships\nAccessControl --&gt; AccessStrategy\nAccessControl --&gt; Card\nAdminCard --|&gt; Card\nEmployeeCard --|&gt; Card\nVisitorCard --|&gt; Card\nFloorAccessStrategy --|&gt; AccessStrategy\nRoomAccessStrategy --|&gt; AccessStrategy\nAdmin --&gt; Card\nLogger --|&gt; TimeLogService\nAuditService --&gt; Logger\nCardManager --&gt; Card\nUserLogDecorator --&gt; Logger\n\n@enduml\n&quot;,&#xa;  &quot;format&quot;: &quot;svg&quot;&#xa;}" id="4qCaoXVS47nVKZ-ZSvC8-1">
          <mxCell style="shape=image;noLabel=1;verticalAlign=top;aspect=fixed;imageAspect=0;image=data:image/svg+xml,PD94bWwgdmVyc2lvbj0iMS4wIiBlbmNvZGluZz0idXMtYXNjaWkiIHN0YW5kYWxvbmU9Im5vIj8+PHN2ZyB4bWxucz0iaHR0cDovL3d3dy53My5vcmcvMjAwMC9zdmciIHhtbG5zOnhsaW5rPSJodHRwOi8vd3d3LnczLm9yZy8xOTk5L3hsaW5rIiBjb250ZW50U3R5bGVUeXBlPSJ0ZXh0L2NzcyIgaGVpZ2h0PSI3MTJweCIgcHJlc2VydmVBc3BlY3RSYXRpbz0ibm9uZSIgc3R5bGU9IndpZHRoOjQxNzFweDtoZWlnaHQ6NzEycHg7YmFja2dyb3VuZDojRkZGRkZGOyIgdmVyc2lvbj0iMS4xIiB2aWV3Qm94PSIwIDAgNDE3MSA3MTIiIHdpZHRoPSI0MTcxcHgiIHpvb21BbmRQYW49Im1hZ25pZnkiPjxkZWZzLz48Zz48IS0tY2xhc3MgQWNjZXNzQ29udHJvbC0tPjxnIGlkPSJlbGVtX0FjY2Vzc0NvbnRyb2wiPjxyZWN0IGNvZGVMaW5lPSIyIiBmaWxsPSIjRjFGMUYxIiBoZWlnaHQ9IjEwNy45Mzc1IiBpZD0iQWNjZXNzQ29udHJvbCIgcng9IjIuNSIgcnk9IjIuNSIgc3R5bGU9InN0cm9rZTojMTgxODE4O3N0cm9rZS13aWR0aDowLjU7IiB3aWR0aD0iNDY0IiB4PSIxMTQ1IiB5PSIyMiIvPjxlbGxpcHNlIGN4PSIxMzI3LjI1IiBjeT0iMzgiIGZpbGw9IiNBREQxQjIiIHJ4PSIxMSIgcnk9IjExIiBzdHlsZT0ic3Ryb2tlOiMxODE4MTg7c3Ryb2tlLXdpZHRoOjEuMDsiLz48cGF0aCBkPSJNMTMyNC44NzUsNDIuMjUgTDEzMjQuODc1LDQ0IEwxMzI5LjgxMjUsNDQgTDEzMjkuODEyNSw0Mi4yNSBMMTMyNC44NzUsNDIuMjUgWiBNMTMyNS41NjI1LDQyLjkzNzUgUTEzMjUuNTYyNSw0Mi45Mzc1IDEzMjUuNTYyNSwzMy43NSBMMTMyMy44MTI1LDMzLjc1IFExMzIzLjgxMjUsMzMuNzUgMTMyMy44MTI1LDQyLjkzNzUgTDEzMjUuNTYyNSw0Mi45Mzc1IFogTTEzMjkuMTI1LDQyLjkzNzUgTDEzMzAuODc1LDQyLjkzNzUgUTEzMzAuODc1LDQyLjkzNzUgMTMzMC44NzUsNDAuMTI1IEwxMzI5LjEyNSw0MC4xMjUgUTEzMjkuMTI1LDQwLjEyNSAxMzI5LjEyNSw0Mi45Mzc1IFogTTEzMjkuMTI1LDMzLjc1IFExMzI5LjEyNSwzMy43NSAxMzI5LjEyNSwzNi41NjI1IEwxMzMwLjg3NSwzNi41NjI1IFExMzMwLjg3NSwzNi41NjI1IDEzMzAuODc1LDMzLjc1IEwxMzI5LjEyNSwzMy43NSBaIE0xMzI0Ljg3NSwzNC40Mzc1IEwxMzI5LjgxMjUsMzQuNDM3NSBMMTMyOS44MTI1LDMyLjY4NzUgTDEzMjQuODc1LDMyLjY4NzUgTDEzMjQuODc1LDM0LjQzNzUgWiAiIGZpbGw9IiMwMDAwMDAiLz48dGV4dCBmaWxsPSIjMDAwMDAwIiBmb250LWZhbWlseT0ic2Fucy1zZXJpZiIgZm9udC1zaXplPSIxNCIgbGVuZ3RoQWRqdXN0PSJzcGFjaW5nIiB0ZXh0TGVuZ3RoPSI5MSIgeD0iMTM0Ny43NSIgeT0iNDMuNzQyMiI+QWNjZXNzQ29udHJvbDwvdGV4dD48bGluZSBzdHlsZT0ic3Ryb2tlOiMxODE4MTg7c3Ryb2tlLXdpZHRoOjAuNTsiIHgxPSIxMTQ2IiB4Mj0iMTYwOCIgeTE9IjU0IiB5Mj0iNTQiLz48cmVjdCBmaWxsPSJub25lIiBoZWlnaHQ9IjYiIHN0eWxlPSJzdHJva2U6I0M4MjkzMDtzdHJva2Utd2lkdGg6MS4wOyIgd2lkdGg9IjYiIHg9IjExNTMiIHk9IjYzLjk5MjIiLz48dGV4dCBmaWxsPSIjMDAwMDAwIiBmb250LWZhbWlseT0ic2Fucy1zZXJpZiIgZm9udC1zaXplPSIxNCIgbGVuZ3RoQWRqdXN0PSJzcGFjaW5nIiB0ZXh0TGVuZ3RoPSIyMTAiIHg9IjExNjUiIHk9IjcxLjIzNDQiPmFjY2Vzc1N0cmF0ZWd5OiBBY2Nlc3NTdHJhdGVneTwvdGV4dD48cmVjdCBmaWxsPSJub25lIiBoZWlnaHQ9IjYiIHN0eWxlPSJzdHJva2U6I0M4MjkzMDtzdHJva2Utd2lkdGg6MS4wOyIgd2lkdGg9IjYiIHg9IjExNTMiIHk9Ijc4Ljk3NjYiLz48dGV4dCBmaWxsPSIjMDAwMDAwIiBmb250LWZhbWlseT0ic2Fucy1zZXJpZiIgZm9udC1zaXplPSIxNCIgbGVuZ3RoQWRqdXN0PSJzcGFjaW5nIiB0ZXh0TGVuZ3RoPSI3MCIgeD0iMTE2NSIgeT0iODYuMjE4OCI+Y2FyZDogQ2FyZDwvdGV4dD48cmVjdCBmaWxsPSJub25lIiBoZWlnaHQ9IjYiIHN0eWxlPSJzdHJva2U6I0M4MjkzMDtzdHJva2Utd2lkdGg6MS4wOyIgd2lkdGg9IjYiIHg9IjExNTMiIHk9IjkzLjk2MDkiLz48dGV4dCBmaWxsPSIjMDAwMDAwIiBmb250LWZhbWlseT0ic2Fucy1zZXJpZiIgZm9udC1zaXplPSIxNCIgbGVuZ3RoQWRqdXN0PSJzcGFjaW5nIiB0ZXh0TGVuZ3RoPSIyMTIiIHg9IjExNjUiIHk9IjEwMS4yMDMxIj50aW1lTG9nU2VydmljZTogVGltZUxvZ1NlcnZpY2U8L3RleHQ+PGxpbmUgc3R5bGU9InN0cm9rZTojMTgxODE4O3N0cm9rZS13aWR0aDowLjU7IiB4MT0iMTE0NiIgeDI9IjE2MDgiIHkxPSIxMDYuOTUzMSIgeTI9IjEwNi45NTMxIi8+PGVsbGlwc2UgY3g9IjExNTYiIGN5PSIxMTkuOTQ1MyIgZmlsbD0iIzg0QkU4NCIgcng9IjMiIHJ5PSIzIiBzdHlsZT0ic3Ryb2tlOiMwMzgwNDg7c3Ryb2tlLXdpZHRoOjEuMDsiLz48dGV4dCBmaWxsPSIjMDAwMDAwIiBmb250LWZhbWlseT0ic2Fucy1zZXJpZiIgZm9udC1zaXplPSIxNCIgbGVuZ3RoQWRqdXN0PSJzcGFjaW5nIiB0ZXh0TGVuZ3RoPSI0MzgiIHg9IjExNjUiIHk9IjEyNC4xODc1Ij5yZXF1ZXN0QWNjZXNzKGZsb29yTGV2ZWw6IFN0cmluZywgcm9vbU51bWJlcjogU3RyaW5nKTogYm9vbGVhbjwvdGV4dD48L2c+PCEtLWNsYXNzIEFjY2Vzc1N0cmF0ZWd5LS0+PGcgaWQ9ImVsZW1fQWNjZXNzU3RyYXRlZ3kiPjxyZWN0IGNvZGVMaW5lPSI5IiBmaWxsPSIjRjFGMUYxIiBoZWlnaHQ9IjYyLjk4NDQiIGlkPSJBY2Nlc3NTdHJhdGVneSIgcng9IjIuNSIgcnk9IjIuNSIgc3R5bGU9InN0cm9rZTojMTgxODE4O3N0cm9rZS13aWR0aDowLjU7IiB3aWR0aD0iNTM0IiB4PSI1NzYiIHk9IjM1NSIvPjxlbGxpcHNlIGN4PSI3ODkuNzUiIGN5PSIzNzEiIGZpbGw9IiNCNEE3RTUiIHJ4PSIxMSIgcnk9IjExIiBzdHlsZT0ic3Ryb2tlOiMxODE4MTg7c3Ryb2tlLXdpZHRoOjEuMDsiLz48cGF0aCBkPSJNNzkyLjg3NSwzNzcgTDc5Mi44NzUsMzc1LjI1IEw3OTAuNzUsMzc1LjI1IFE3OTAuNzUsMzc1LjI1IDc5MC43NSwzNjcuNDM3NSBMNzkyLjg3NSwzNjcuNDM3NSBMNzkyLjg3NSwzNjUuNjg3NSBMNzg2Ljg3NSwzNjUuNjg3NSBMNzg2Ljg3NSwzNjcuNDM3NSBMNzg5LDM2Ny40Mzc1IFE3ODksMzY3LjQzNzUgNzg5LDM3NS4yNSBMNzg2Ljg3NSwzNzUuMjUgTDc4Ni44NzUsMzc3IEw3OTIuODc1LDM3NyBaICIgZmlsbD0iIzAwMDAwMCIvPjx0ZXh0IGZpbGw9IiMwMDAwMDAiIGZvbnQtZmFtaWx5PSJzYW5zLXNlcmlmIiBmb250LXNpemU9IjE0IiBmb250LXN0eWxlPSJpdGFsaWMiIGxlbmd0aEFkanVzdD0ic3BhY2luZyIgdGV4dExlbmd0aD0iOTgiIHg9IjgxMC4yNSIgeT0iMzc2Ljc0MjIiPkFjY2Vzc1N0cmF0ZWd5PC90ZXh0PjxsaW5lIHN0eWxlPSJzdHJva2U6IzE4MTgxODtzdHJva2Utd2lkdGg6MC41OyIgeDE9IjU3NyIgeDI9IjExMDkiIHkxPSIzODciIHkyPSIzODciLz48bGluZSBzdHlsZT0ic3Ryb2tlOiMxODE4MTg7c3Ryb2tlLXdpZHRoOjAuNTsiIHgxPSI1NzciIHgyPSIxMTA5IiB5MT0iMzk1IiB5Mj0iMzk1Ii8+PGVsbGlwc2UgY3g9IjU4NyIgY3k9IjQwNy45OTIyIiBmaWxsPSIjODRCRTg0IiByeD0iMyIgcnk9IjMiIHN0eWxlPSJzdHJva2U6IzAzODA0ODtzdHJva2Utd2lkdGg6MS4wOyIvPjx0ZXh0IGZpbGw9IiMwMDAwMDAiIGZvbnQtZmFtaWx5PSJzYW5zLXNlcmlmIiBmb250LXNpemU9IjE0IiBsZW5ndGhBZGp1c3Q9InNwYWNpbmciIHRleHRMZW5ndGg9IjUwOCIgeD0iNTk2IiB5PSI0MTIuMjM0NCI+Y2hlY2tBY2Nlc3MoY2FyZDogQ2FyZCwgZmxvb3JMZXZlbDogU3RyaW5nLCByb29tTnVtYmVyOiBTdHJpbmcpOiBib29sZWFuPC90ZXh0PjwvZz48IS0tY2xhc3MgQ2FyZC0tPjxnIGlkPSJlbGVtX0NhcmQiPjxyZWN0IGNvZGVMaW5lPSIxMyIgZmlsbD0iI0YxRjFGMSIgaGVpZ2h0PSIzNjIuNjcxOSIgaWQ9IkNhcmQiIHJ4PSIyLjUiIHJ5PSIyLjUiIHN0eWxlPSJzdHJva2U6IzE4MTgxODtzdHJva2Utd2lkdGg6MC41OyIgd2lkdGg9IjM3MSIgeD0iMTg2MS41IiB5PSIyMDUiLz48ZWxsaXBzZSBjeD0iMjAyOC43NSIgY3k9IjIyMSIgZmlsbD0iI0E5RENERiIgcng9IjExIiByeT0iMTEiIHN0eWxlPSJzdHJva2U6IzE4MTgxODtzdHJva2Utd2lkdGg6MS4wOyIvPjxwYXRoIGQ9Ik0yMDI1LjMxMjUsMjE4LjYyNSBMMjAyNS4zMTI1LDIyNi43NSBMMjAyNy4wNjI1LDIyNi43NSBRMjAyNy4wNjI1LDIyNi43NSAyMDI3LjA2MjUsMjIyLjUgTDIwMzAuNjI1LDIyMi41IFEyMDMwLjYyNSwyMjIuNSAyMDMwLjYyNSwyMjYuNzUgTDIwMzIuMzc1LDIyNi43NSBMMjAzMi4zNzUsMjE4LjYyNSBMMjAzMC42MjUsMjE4LjYyNSBRMjAzMC42MjUsMjE4LjYyNSAyMDMwLjYyNSwyMjAuNzUgTDIwMjcuMDYyNSwyMjAuNzUgUTIwMjcuMDYyNSwyMjAuNzUgMjAyNy4wNjI1LDIxOC42MjUgTDIwMjUuMzEyNSwyMTguNjI1IFogTTIwMjYuMzc1LDIxOS4zMTI1IEwyMDI4LjEyNSwyMTkuMzEyNSBRMjAyOC4xMjUsMjE5LjMxMjUgMjAyOC4xMjUsMjE2LjUgTDIwMjYuMzc1LDIxNi41IFEyMDI2LjM3NSwyMTYuNSAyMDI2LjM3NSwyMTkuMzEyNSBaIE0yMDMxLjMxMjUsMjE5LjMxMjUgUTIwMzEuMzEyNSwyMTkuMzEyNSAyMDMxLjMxMjUsMjE2LjUgTDIwMjkuNTYyNSwyMTYuNSBRMjAyOS41NjI1LDIxNi41IDIwMjkuNTYyNSwyMTkuMzEyNSBMMjAzMS4zMTI1LDIxOS4zMTI1IFogTTIwMjcuNDM3NSwyMTcuMTg3NSBMMjAzMC4yNSwyMTcuMTg3NSBMMjAzMC4yNSwyMTUuNDM3NSBMMjAyNy40Mzc1LDIxNS40Mzc1IEwyMDI3LjQzNzUsMjE3LjE4NzUgWiAiIGZpbGw9IiMwMDAwMDAiLz48dGV4dCBmaWxsPSIjMDAwMDAwIiBmb250LWZhbWlseT0ic2Fucy1zZXJpZiIgZm9udC1zaXplPSIxNCIgZm9udC1zdHlsZT0iaXRhbGljIiBsZW5ndGhBZGp1c3Q9InNwYWNpbmciIHRleHRMZW5ndGg9IjI4IiB4PSIyMDQ5LjI1IiB5PSIyMjYuNzQyMiI+Q2FyZDwvdGV4dD48bGluZSBzdHlsZT0ic3Ryb2tlOiMxODE4MTg7c3Ryb2tlLXdpZHRoOjAuNTsiIHgxPSIxODYyLjUiIHgyPSIyMjMxLjUiIHkxPSIyMzciIHkyPSIyMzciLz48cmVjdCBmaWxsPSJub25lIiBoZWlnaHQ9IjYiIHN0eWxlPSJzdHJva2U6I0M4MjkzMDtzdHJva2Utd2lkdGg6MS4wOyIgd2lkdGg9IjYiIHg9IjE4NjkuNSIgeT0iMjQ2Ljk5MjIiLz48dGV4dCBmaWxsPSIjMDAwMDAwIiBmb250LWZhbWlseT0ic2Fucy1zZXJpZiIgZm9udC1zaXplPSIxNCIgbGVuZ3RoQWRqdXN0PSJzcGFjaW5nIiB0ZXh0TGVuZ3RoPSIxMjEiIHg9IjE4ODEuNSIgeT0iMjU0LjIzNDQiPm93bmVyTmFtZTogU3RyaW5nPC90ZXh0PjxyZWN0IGZpbGw9Im5vbmUiIGhlaWdodD0iNiIgc3R5bGU9InN0cm9rZTojQzgyOTMwO3N0cm9rZS13aWR0aDoxLjA7IiB3aWR0aD0iNiIgeD0iMTg2OS41IiB5PSIyNjEuOTc2NiIvPjx0ZXh0IGZpbGw9IiMwMDAwMDAiIGZvbnQtZmFtaWx5PSJzYW5zLXNlcmlmIiBmb250LXNpemU9IjE0IiBsZW5ndGhBZGp1c3Q9InNwYWNpbmciIHRleHRMZW5ndGg9IjkyIiB4PSIxODgxLjUiIHk9IjI2OS4yMTg4Ij5vd25lckFnZTogaW50PC90ZXh0PjxyZWN0IGZpbGw9Im5vbmUiIGhlaWdodD0iNiIgc3R5bGU9InN0cm9rZTojQzgyOTMwO3N0cm9rZS13aWR0aDoxLjA7IiB3aWR0aD0iNiIgeD0iMTg2OS41IiB5PSIyNzYuOTYwOSIvPjx0ZXh0IGZpbGw9IiMwMDAwMDAiIGZvbnQtZmFtaWx5PSJzYW5zLXNlcmlmIiBmb250LXNpemU9IjE0IiBsZW5ndGhBZGp1c3Q9InNwYWNpbmciIHRleHRMZW5ndGg9IjE0MCIgeD0iMTg4MS41IiB5PSIyODQuMjAzMSI+Y2FyZElkOiBMaXN0Jmx0O1N0cmluZyZndDs8L3RleHQ+PHJlY3QgZmlsbD0ibm9uZSIgaGVpZ2h0PSI2IiBzdHlsZT0ic3Ryb2tlOiNDODI5MzA7c3Ryb2tlLXdpZHRoOjEuMDsiIHdpZHRoPSI2IiB4PSIxODY5LjUiIHk9IjI5MS45NDUzIi8+PHRleHQgZmlsbD0iIzAwMDAwMCIgZm9udC1mYW1pbHk9InNhbnMtc2VyaWYiIGZvbnQtc2l6ZT0iMTQiIGxlbmd0aEFkanVzdD0ic3BhY2luZyIgdGV4dExlbmd0aD0iMTEzIiB4PSIxODgxLjUiIHk9IjI5OS4xODc1Ij5wYXNzd29yZDogU3RyaW5nPC90ZXh0PjxyZWN0IGZpbGw9Im5vbmUiIGhlaWdodD0iNiIgc3R5bGU9InN0cm9rZTojQzgyOTMwO3N0cm9rZS13aWR0aDoxLjA7IiB3aWR0aD0iNiIgeD0iMTg2OS41IiB5PSIzMDYuOTI5NyIvPjx0ZXh0IGZpbGw9IiMwMDAwMDAiIGZvbnQtZmFtaWx5PSJzYW5zLXNlcmlmIiBmb250LXNpemU9IjE0IiBsZW5ndGhBZGp1c3Q9InNwYWNpbmciIHRleHRMZW5ndGg9IjEwNSIgeD0iMTg4MS41IiB5PSIzMTQuMTcxOSI+YWN0aXZlOiBib29sZWFuPC90ZXh0PjxyZWN0IGZpbGw9Im5vbmUiIGhlaWdodD0iNiIgc3R5bGU9InN0cm9rZTojQzgyOTMwO3N0cm9rZS13aWR0aDoxLjA7IiB3aWR0aD0iNiIgeD0iMTg2OS41IiB5PSIzMjEuOTE0MSIvPjx0ZXh0IGZpbGw9IiMwMDAwMDAiIGZvbnQtZmFtaWx5PSJzYW5zLXNlcmlmIiBmb250LXNpemU9IjE0IiBsZW5ndGhBZGp1c3Q9InNwYWNpbmciIHRleHRMZW5ndGg9IjE4MiIgeD0iMTg4MS41IiB5PSIzMjkuMTU2MyI+YWNjZXNzTGV2ZWxzOiBMaXN0Jmx0O1N0cmluZyZndDs8L3RleHQ+PGxpbmUgc3R5bGU9InN0cm9rZTojMTgxODE4O3N0cm9rZS13aWR0aDowLjU7IiB4MT0iMTg2Mi41IiB4Mj0iMjIzMS41IiB5MT0iMzM0LjkwNjMiIHkyPSIzMzQuOTA2MyIvPjxlbGxpcHNlIGN4PSIxODcyLjUiIGN5PSIzNDcuODk4NCIgZmlsbD0iIzg0QkU4NCIgcng9IjMiIHJ5PSIzIiBzdHlsZT0ic3Ryb2tlOiMwMzgwNDg7c3Ryb2tlLXdpZHRoOjEuMDsiLz48dGV4dCBmaWxsPSIjMDAwMDAwIiBmb250LWZhbWlseT0ic2Fucy1zZXJpZiIgZm9udC1zaXplPSIxNCIgbGVuZ3RoQWRqdXN0PSJzcGFjaW5nIiB0ZXh0TGVuZ3RoPSIxNTgiIHg9IjE4ODEuNSIgeT0iMzUyLjE0MDYiPmdldE93bmVyTmFtZSgpOiBTdHJpbmc8L3RleHQ+PGVsbGlwc2UgY3g9IjE4NzIuNSIgY3k9IjM2Mi44ODI4IiBmaWxsPSIjODRCRTg0IiByeD0iMyIgcnk9IjMiIHN0eWxlPSJzdHJva2U6IzAzODA0ODtzdHJva2Utd2lkdGg6MS4wOyIvPjx0ZXh0IGZpbGw9IiMwMDAwMDAiIGZvbnQtZmFtaWx5PSJzYW5zLXNlcmlmIiBmb250LXNpemU9IjE0IiBsZW5ndGhBZGp1c3Q9InNwYWNpbmciIHRleHRMZW5ndGg9IjI2NSIgeD0iMTg4MS41IiB5PSIzNjcuMTI1Ij5zZXRPd25lck5hbWUob3duZXJOYW1lOiBTdHJpbmcpOiB2b2lkPC90ZXh0PjxlbGxpcHNlIGN4PSIxODcyLjUiIGN5PSIzNzcuODY3MiIgZmlsbD0iIzg0QkU4NCIgcng9IjMiIHJ5PSIzIiBzdHlsZT0ic3Ryb2tlOiMwMzgwNDg7c3Ryb2tlLXdpZHRoOjEuMDsiLz48dGV4dCBmaWxsPSIjMDAwMDAwIiBmb250LWZhbWlseT0ic2Fucy1zZXJpZiIgZm9udC1zaXplPSIxNCIgbGVuZ3RoQWRqdXN0PSJzcGFjaW5nIiB0ZXh0TGVuZ3RoPSIxMjkiIHg9IjE4ODEuNSIgeT0iMzgyLjEwOTQiPmdldE93bmVyQWdlKCk6IGludDwvdGV4dD48ZWxsaXBzZSBjeD0iMTg3Mi41IiBjeT0iMzkyLjg1MTYiIGZpbGw9IiM4NEJFODQiIHJ4PSIzIiByeT0iMyIgc3R5bGU9InN0cm9rZTojMDM4MDQ4O3N0cm9rZS13aWR0aDoxLjA7Ii8+PHRleHQgZmlsbD0iIzAwMDAwMCIgZm9udC1mYW1pbHk9InNhbnMtc2VyaWYiIGZvbnQtc2l6ZT0iMTQiIGxlbmd0aEFkanVzdD0ic3BhY2luZyIgdGV4dExlbmd0aD0iMjI4IiB4PSIxODgxLjUiIHk9IjM5Ny4wOTM4Ij5zZXRPd25lckFnZShvd25lckFnZTogaW50KTogdm9pZDwvdGV4dD48ZWxsaXBzZSBjeD0iMTg3Mi41IiBjeT0iNDA3LjgzNTkiIGZpbGw9IiM4NEJFODQiIHJ4PSIzIiByeT0iMyIgc3R5bGU9InN0cm9rZTojMDM4MDQ4O3N0cm9rZS13aWR0aDoxLjA7Ii8+PHRleHQgZmlsbD0iIzAwMDAwMCIgZm9udC1mYW1pbHk9InNhbnMtc2VyaWYiIGZvbnQtc2l6ZT0iMTQiIGxlbmd0aEFkanVzdD0ic3BhY2luZyIgdGV4dExlbmd0aD0iMTc3IiB4PSIxODgxLjUiIHk9IjQxMi4wNzgxIj5nZXRDYXJkSWQoKTogTGlzdCZsdDtTdHJpbmcmZ3Q7PC90ZXh0PjxlbGxpcHNlIGN4PSIxODcyLjUiIGN5PSI0MjIuODIwMyIgZmlsbD0iIzg0QkU4NCIgcng9IjMiIHJ5PSIzIiBzdHlsZT0ic3Ryb2tlOiMwMzgwNDg7c3Ryb2tlLXdpZHRoOjEuMDsiLz48dGV4dCBmaWxsPSIjMDAwMDAwIiBmb250LWZhbWlseT0ic2Fucy1zZXJpZiIgZm9udC1zaXplPSIxNCIgbGVuZ3RoQWRqdXN0PSJzcGFjaW5nIiB0ZXh0TGVuZ3RoPSIyNjEiIHg9IjE4ODEuNSIgeT0iNDI3LjA2MjUiPnNldENhcmRJZChjYXJkSWQ6IExpc3QmbHQ7U3RyaW5nJmd0Oyk6IHZvaWQ8L3RleHQ+PGVsbGlwc2UgY3g9IjE4NzIuNSIgY3k9IjQzNy44MDQ3IiBmaWxsPSIjODRCRTg0IiByeD0iMyIgcnk9IjMiIHN0eWxlPSJzdHJva2U6IzAzODA0ODtzdHJva2Utd2lkdGg6MS4wOyIvPjx0ZXh0IGZpbGw9IiMwMDAwMDAiIGZvbnQtZmFtaWx5PSJzYW5zLXNlcmlmIiBmb250LXNpemU9IjE0IiBsZW5ndGhBZGp1c3Q9InNwYWNpbmciIHRleHRMZW5ndGg9IjE1MCIgeD0iMTg4MS41IiB5PSI0NDIuMDQ2OSI+Z2V0UGFzc3dvcmQoKTogU3RyaW5nPC90ZXh0PjxlbGxpcHNlIGN4PSIxODcyLjUiIGN5PSI0NTIuNzg5MSIgZmlsbD0iIzg0QkU4NCIgcng9IjMiIHJ5PSIzIiBzdHlsZT0ic3Ryb2tlOiMwMzgwNDg7c3Ryb2tlLXdpZHRoOjEuMDsiLz48dGV4dCBmaWxsPSIjMDAwMDAwIiBmb250LWZhbWlseT0ic2Fucy1zZXJpZiIgZm9udC1zaXplPSIxNCIgbGVuZ3RoQWRqdXN0PSJzcGFjaW5nIiB0ZXh0TGVuZ3RoPSIyNDkiIHg9IjE4ODEuNSIgeT0iNDU3LjAzMTMiPnNldFBhc3N3b3JkKHBhc3N3b3JkOiBTdHJpbmcpOiB2b2lkPC90ZXh0PjxlbGxpcHNlIGN4PSIxODcyLjUiIGN5PSI0NjcuNzczNCIgZmlsbD0iIzg0QkU4NCIgcng9IjMiIHJ5PSIzIiBzdHlsZT0ic3Ryb2tlOiMwMzgwNDg7c3Ryb2tlLXdpZHRoOjEuMDsiLz48dGV4dCBmaWxsPSIjMDAwMDAwIiBmb250LWZhbWlseT0ic2Fucy1zZXJpZiIgZm9udC1zaXplPSIxNCIgbGVuZ3RoQWRqdXN0PSJzcGFjaW5nIiB0ZXh0TGVuZ3RoPSIxMzUiIHg9IjE4ODEuNSIgeT0iNDcyLjAxNTYiPmlzQWN0aXZlKCk6IGJvb2xlYW48L3RleHQ+PGVsbGlwc2UgY3g9IjE4NzIuNSIgY3k9IjQ4Mi43NTc4IiBmaWxsPSIjODRCRTg0IiByeD0iMyIgcnk9IjMiIHN0eWxlPSJzdHJva2U6IzAzODA0ODtzdHJva2Utd2lkdGg6MS4wOyIvPjx0ZXh0IGZpbGw9IiMwMDAwMDAiIGZvbnQtZmFtaWx5PSJzYW5zLXNlcmlmIiBmb250LXNpemU9IjE0IiBsZW5ndGhBZGp1c3Q9InNwYWNpbmciIHRleHRMZW5ndGg9IjIyNiIgeD0iMTg4MS41IiB5PSI0ODciPnNldEFjdGl2ZShhY3RpdmU6IGJvb2xlYW4pOiB2b2lkPC90ZXh0PjxlbGxpcHNlIGN4PSIxODcyLjUiIGN5PSI0OTcuNzQyMiIgZmlsbD0iIzg0QkU4NCIgcng9IjMiIHJ5PSIzIiBzdHlsZT0ic3Ryb2tlOiMwMzgwNDg7c3Ryb2tlLXdpZHRoOjEuMDsiLz48dGV4dCBmaWxsPSIjMDAwMDAwIiBmb250LWZhbWlseT0ic2Fucy1zZXJpZiIgZm9udC1zaXplPSIxNCIgbGVuZ3RoQWRqdXN0PSJzcGFjaW5nIiB0ZXh0TGVuZ3RoPSIyMTkiIHg9IjE4ODEuNSIgeT0iNTAxLjk4NDQiPmdldEFjY2Vzc0xldmVscygpOiBMaXN0Jmx0O1N0cmluZyZndDs8L3RleHQ+PGVsbGlwc2UgY3g9IjE4NzIuNSIgY3k9IjUxMi43MjY2IiBmaWxsPSIjODRCRTg0IiByeD0iMyIgcnk9IjMiIHN0eWxlPSJzdHJva2U6IzAzODA0ODtzdHJva2Utd2lkdGg6MS4wOyIvPjx0ZXh0IGZpbGw9IiMwMDAwMDAiIGZvbnQtZmFtaWx5PSJzYW5zLXNlcmlmIiBmb250LXNpemU9IjE0IiBsZW5ndGhBZGp1c3Q9InNwYWNpbmciIHRleHRMZW5ndGg9IjM0NSIgeD0iMTg4MS41IiB5PSI1MTYuOTY4OCI+c2V0QWNjZXNzTGV2ZWxzKGFjY2Vzc0xldmVsczogTGlzdCZsdDtTdHJpbmcmZ3Q7KTogdm9pZDwvdGV4dD48ZWxsaXBzZSBjeD0iMTg3Mi41IiBjeT0iNTI3LjcxMDkiIGZpbGw9IiM4NEJFODQiIHJ4PSIzIiByeT0iMyIgc3R5bGU9InN0cm9rZTojMDM4MDQ4O3N0cm9rZS13aWR0aDoxLjA7Ii8+PHRleHQgZmlsbD0iIzAwMDAwMCIgZm9udC1mYW1pbHk9InNhbnMtc2VyaWYiIGZvbnQtc2l6ZT0iMTQiIGxlbmd0aEFkanVzdD0ic3BhY2luZyIgdGV4dExlbmd0aD0iMjA1IiB4PSIxODgxLjUiIHk9IjUzMS45NTMxIj5nZXRDYXJkSWRMaXN0KCk6IExpc3QmbHQ7U3RyaW5nJmd0OzwvdGV4dD48ZWxsaXBzZSBjeD0iMTg3Mi41IiBjeT0iNTQyLjY5NTMiIGZpbGw9IiM4NEJFODQiIHJ4PSIzIiByeT0iMyIgc3R5bGU9InN0cm9rZTojMDM4MDQ4O3N0cm9rZS13aWR0aDoxLjA7Ii8+PHRleHQgZmlsbD0iIzAwMDAwMCIgZm9udC1mYW1pbHk9InNhbnMtc2VyaWYiIGZvbnQtc2l6ZT0iMTQiIGxlbmd0aEFkanVzdD0ic3BhY2luZyIgdGV4dExlbmd0aD0iMTQ5IiB4PSIxODgxLjUiIHk9IjU0Ni45Mzc1Ij5nZXRDYXJkVHlwZSgpOiBTdHJpbmc8L3RleHQ+PGVsbGlwc2UgY3g9IjE4NzIuNSIgY3k9IjU1Ny42Nzk3IiBmaWxsPSIjODRCRTg0IiByeD0iMyIgcnk9IjMiIHN0eWxlPSJzdHJva2U6IzAzODA0ODtzdHJva2Utd2lkdGg6MS4wOyIvPjx0ZXh0IGZpbGw9IiMwMDAwMDAiIGZvbnQtZmFtaWx5PSJzYW5zLXNlcmlmIiBmb250LXNpemU9IjE0IiBsZW5ndGhBZGp1c3Q9InNwYWNpbmciIHRleHRMZW5ndGg9IjE0MiIgeD0iMTg4MS41IiB5PSI1NjEuOTIxOSI+YW5hbHl6ZVVzYWdlKCk6IHZvaWQ8L3RleHQ+PC9nPjwhLS1jbGFzcyBBZG1pbkNhcmQtLT48ZyBpZD0iZWxlbV9BZG1pbkNhcmQiPjxyZWN0IGNvZGVMaW5lPSIzNyIgZmlsbD0iI0YxRjFGMSIgaGVpZ2h0PSI3Ny45Njg4IiBpZD0iQWRtaW5DYXJkIiByeD0iMi41IiByeT0iMi41IiBzdHlsZT0ic3Ryb2tlOiMxODE4MTg7c3Ryb2tlLXdpZHRoOjAuNTsiIHdpZHRoPSIxNzUiIHg9IjE2NDQuNSIgeT0iMzciLz48ZWxsaXBzZSBjeD0iMTY5NS43NSIgY3k9IjUzIiBmaWxsPSIjQUREMUIyIiByeD0iMTEiIHJ5PSIxMSIgc3R5bGU9InN0cm9rZTojMTgxODE4O3N0cm9rZS13aWR0aDoxLjA7Ii8+PHBhdGggZD0iTTE2OTMuMzc1LDU3LjI1IEwxNjkzLjM3NSw1OSBMMTY5OC4zMTI1LDU5IEwxNjk4LjMxMjUsNTcuMjUgTDE2OTMuMzc1LDU3LjI1IFogTTE2OTQuMDYyNSw1Ny45Mzc1IFExNjk0LjA2MjUsNTcuOTM3NSAxNjk0LjA2MjUsNDguNzUgTDE2OTIuMzEyNSw0OC43NSBRMTY5Mi4zMTI1LDQ4Ljc1IDE2OTIuMzEyNSw1Ny45Mzc1IEwxNjk0LjA2MjUsNTcuOTM3NSBaIE0xNjk3LjYyNSw1Ny45Mzc1IEwxNjk5LjM3NSw1Ny45Mzc1IFExNjk5LjM3NSw1Ny45Mzc1IDE2OTkuMzc1LDU1LjEyNSBMMTY5Ny42MjUsNTUuMTI1IFExNjk3LjYyNSw1NS4xMjUgMTY5Ny42MjUsNTcuOTM3NSBaIE0xNjk3LjYyNSw0OC43NSBRMTY5Ny42MjUsNDguNzUgMTY5Ny42MjUsNTEuNTYyNSBMMTY5OS4zNzUsNTEuNTYyNSBRMTY5OS4zNzUsNTEuNTYyNSAxNjk5LjM3NSw0OC43NSBMMTY5Ny42MjUsNDguNzUgWiBNMTY5My4zNzUsNDkuNDM3NSBMMTY5OC4zMTI1LDQ5LjQzNzUgTDE2OTguMzEyNSw0Ny42ODc1IEwxNjkzLjM3NSw0Ny42ODc1IEwxNjkzLjM3NSw0OS40Mzc1IFogIiBmaWxsPSIjMDAwMDAwIi8+PHRleHQgZmlsbD0iIzAwMDAwMCIgZm9udC1mYW1pbHk9InNhbnMtc2VyaWYiIGZvbnQtc2l6ZT0iMTQiIGxlbmd0aEFkanVzdD0ic3BhY2luZyIgdGV4dExlbmd0aD0iNjQiIHg9IjE3MTYuMjUiIHk9IjU4Ljc0MjIiPkFkbWluQ2FyZDwvdGV4dD48bGluZSBzdHlsZT0ic3Ryb2tlOiMxODE4MTg7c3Ryb2tlLXdpZHRoOjAuNTsiIHgxPSIxNjQ1LjUiIHgyPSIxODE4LjUiIHkxPSI2OSIgeTI9IjY5Ii8+PGxpbmUgc3R5bGU9InN0cm9rZTojMTgxODE4O3N0cm9rZS13aWR0aDowLjU7IiB4MT0iMTY0NS41IiB4Mj0iMTgxOC41IiB5MT0iNzciIHkyPSI3NyIvPjxlbGxpcHNlIGN4PSIxNjU1LjUiIGN5PSI4OS45OTIyIiBmaWxsPSIjODRCRTg0IiByeD0iMyIgcnk9IjMiIHN0eWxlPSJzdHJva2U6IzAzODA0ODtzdHJva2Utd2lkdGg6MS4wOyIvPjx0ZXh0IGZpbGw9IiMwMDAwMDAiIGZvbnQtZmFtaWx5PSJzYW5zLXNlcmlmIiBmb250LXNpemU9IjE0IiBsZW5ndGhBZGp1c3Q9InNwYWNpbmciIHRleHRMZW5ndGg9IjE0OSIgeD0iMTY2NC41IiB5PSI5NC4yMzQ0Ij5nZXRDYXJkVHlwZSgpOiBTdHJpbmc8L3RleHQ+PGVsbGlwc2UgY3g9IjE2NTUuNSIgY3k9IjEwNC45NzY2IiBmaWxsPSIjODRCRTg0IiByeD0iMyIgcnk9IjMiIHN0eWxlPSJzdHJva2U6IzAzODA0ODtzdHJva2Utd2lkdGg6MS4wOyIvPjx0ZXh0IGZpbGw9IiMwMDAwMDAiIGZvbnQtZmFtaWx5PSJzYW5zLXNlcmlmIiBmb250LXNpemU9IjE0IiBsZW5ndGhBZGp1c3Q9InNwYWNpbmciIHRleHRMZW5ndGg9IjE0MiIgeD0iMTY2NC41IiB5PSIxMDkuMjE4OCI+YW5hbHl6ZVVzYWdlKCk6IHZvaWQ8L3RleHQ+PC9nPjwhLS1jbGFzcyBFbXBsb3llZUNhcmQtLT48ZyBpZD0iZWxlbV9FbXBsb3llZUNhcmQiPjxyZWN0IGNvZGVMaW5lPSI0MiIgZmlsbD0iI0YxRjFGMSIgaGVpZ2h0PSI3Ny45Njg4IiBpZD0iRW1wbG95ZWVDYXJkIiByeD0iMi41IiByeT0iMi41IiBzdHlsZT0ic3Ryb2tlOiMxODE4MTg7c3Ryb2tlLXdpZHRoOjAuNTsiIHdpZHRoPSIxNzUiIHg9IjE4NTQuNSIgeT0iMzciLz48ZWxsaXBzZSBjeD0iMTg5NS42IiBjeT0iNTMiIGZpbGw9IiNBREQxQjIiIHJ4PSIxMSIgcnk9IjExIiBzdHlsZT0ic3Ryb2tlOiMxODE4MTg7c3Ryb2tlLXdpZHRoOjEuMDsiLz48cGF0aCBkPSJNMTg5My4yMjUsNTcuMjUgTDE4OTMuMjI1LDU5IEwxODk4LjE2MjUsNTkgTDE4OTguMTYyNSw1Ny4yNSBMMTg5My4yMjUsNTcuMjUgWiBNMTg5My45MTI1LDU3LjkzNzUgUTE4OTMuOTEyNSw1Ny45Mzc1IDE4OTMuOTEyNSw0OC43NSBMMTg5Mi4xNjI1LDQ4Ljc1IFExODkyLjE2MjUsNDguNzUgMTg5Mi4xNjI1LDU3LjkzNzUgTDE4OTMuOTEyNSw1Ny45Mzc1IFogTTE4OTcuNDc1LDU3LjkzNzUgTDE4OTkuMjI1LDU3LjkzNzUgUTE4OTkuMjI1LDU3LjkzNzUgMTg5OS4yMjUsNTUuMTI1IEwxODk3LjQ3NSw1NS4xMjUgUTE4OTcuNDc1LDU1LjEyNSAxODk3LjQ3NSw1Ny45Mzc1IFogTTE4OTcuNDc1LDQ4Ljc1IFExODk3LjQ3NSw0OC43NSAxODk3LjQ3NSw1MS41NjI1IEwxODk5LjIyNSw1MS41NjI1IFExODk5LjIyNSw1MS41NjI1IDE4OTkuMjI1LDQ4Ljc1IEwxODk3LjQ3NSw0OC43NSBaIE0xODkzLjIyNSw0OS40Mzc1IEwxODk4LjE2MjUsNDkuNDM3NSBMMTg5OC4xNjI1LDQ3LjY4NzUgTDE4OTMuMjI1LDQ3LjY4NzUgTDE4OTMuMjI1LDQ5LjQzNzUgWiAiIGZpbGw9IiMwMDAwMDAiLz48dGV4dCBmaWxsPSIjMDAwMDAwIiBmb250LWZhbWlseT0ic2Fucy1zZXJpZiIgZm9udC1zaXplPSIxNCIgbGVuZ3RoQWRqdXN0PSJzcGFjaW5nIiB0ZXh0TGVuZ3RoPSI4NSIgeD0iMTkxNS40IiB5PSI1OC43NDIyIj5FbXBsb3llZUNhcmQ8L3RleHQ+PGxpbmUgc3R5bGU9InN0cm9rZTojMTgxODE4O3N0cm9rZS13aWR0aDowLjU7IiB4MT0iMTg1NS41IiB4Mj0iMjAyOC41IiB5MT0iNjkiIHkyPSI2OSIvPjxsaW5lIHN0eWxlPSJzdHJva2U6IzE4MTgxODtzdHJva2Utd2lkdGg6MC41OyIgeDE9IjE4NTUuNSIgeDI9IjIwMjguNSIgeTE9Ijc3IiB5Mj0iNzciLz48ZWxsaXBzZSBjeD0iMTg2NS41IiBjeT0iODkuOTkyMiIgZmlsbD0iIzg0QkU4NCIgcng9IjMiIHJ5PSIzIiBzdHlsZT0ic3Ryb2tlOiMwMzgwNDg7c3Ryb2tlLXdpZHRoOjEuMDsiLz48dGV4dCBmaWxsPSIjMDAwMDAwIiBmb250LWZhbWlseT0ic2Fucy1zZXJpZiIgZm9udC1zaXplPSIxNCIgbGVuZ3RoQWRqdXN0PSJzcGFjaW5nIiB0ZXh0TGVuZ3RoPSIxNDkiIHg9IjE4NzQuNSIgeT0iOTQuMjM0NCI+Z2V0Q2FyZFR5cGUoKTogU3RyaW5nPC90ZXh0PjxlbGxpcHNlIGN4PSIxODY1LjUiIGN5PSIxMDQuOTc2NiIgZmlsbD0iIzg0QkU4NCIgcng9IjMiIHJ5PSIzIiBzdHlsZT0ic3Ryb2tlOiMwMzgwNDg7c3Ryb2tlLXdpZHRoOjEuMDsiLz48dGV4dCBmaWxsPSIjMDAwMDAwIiBmb250LWZhbWlseT0ic2Fucy1zZXJpZiIgZm9udC1zaXplPSIxNCIgbGVuZ3RoQWRqdXN0PSJzcGFjaW5nIiB0ZXh0TGVuZ3RoPSIxNDIiIHg9IjE4NzQuNSIgeT0iMTA5LjIxODgiPmFuYWx5emVVc2FnZSgpOiB2b2lkPC90ZXh0PjwvZz48IS0tY2xhc3MgVmlzaXRvckNhcmQtLT48ZyBpZD0iZWxlbV9WaXNpdG9yQ2FyZCI+PHJlY3QgY29kZUxpbmU9IjQ3IiBmaWxsPSIjRjFGMUYxIiBoZWlnaHQ9Ijc3Ljk2ODgiIGlkPSJWaXNpdG9yQ2FyZCIgcng9IjIuNSIgcnk9IjIuNSIgc3R5bGU9InN0cm9rZTojMTgxODE4O3N0cm9rZS13aWR0aDowLjU7IiB3aWR0aD0iMTc1IiB4PSIyMDY0LjUiIHk9IjM3Ii8+PGVsbGlwc2UgY3g9IjIxMDkuMjUiIGN5PSI1MyIgZmlsbD0iI0FERDFCMiIgcng9IjExIiByeT0iMTEiIHN0eWxlPSJzdHJva2U6IzE4MTgxODtzdHJva2Utd2lkdGg6MS4wOyIvPjxwYXRoIGQ9Ik0yMTA2Ljg3NSw1Ny4yNSBMMjEwNi44NzUsNTkgTDIxMTEuODEyNSw1OSBMMjExMS44MTI1LDU3LjI1IEwyMTA2Ljg3NSw1Ny4yNSBaIE0yMTA3LjU2MjUsNTcuOTM3NSBRMjEwNy41NjI1LDU3LjkzNzUgMjEwNy41NjI1LDQ4Ljc1IEwyMTA1LjgxMjUsNDguNzUgUTIxMDUuODEyNSw0OC43NSAyMTA1LjgxMjUsNTcuOTM3NSBMMjEwNy41NjI1LDU3LjkzNzUgWiBNMjExMS4xMjUsNTcuOTM3NSBMMjExMi44NzUsNTcuOTM3NSBRMjExMi44NzUsNTcuOTM3NSAyMTEyLjg3NSw1NS4xMjUgTDIxMTEuMTI1LDU1LjEyNSBRMjExMS4xMjUsNTUuMTI1IDIxMTEuMTI1LDU3LjkzNzUgWiBNMjExMS4xMjUsNDguNzUgUTIxMTEuMTI1LDQ4Ljc1IDIxMTEuMTI1LDUxLjU2MjUgTDIxMTIuODc1LDUxLjU2MjUgUTIxMTIuODc1LDUxLjU2MjUgMjExMi44NzUsNDguNzUgTDIxMTEuMTI1LDQ4Ljc1IFogTTIxMDYuODc1LDQ5LjQzNzUgTDIxMTEuODEyNSw0OS40Mzc1IEwyMTExLjgxMjUsNDcuNjg3NSBMMjEwNi44NzUsNDcuNjg3NSBMMjEwNi44NzUsNDkuNDM3NSBaICIgZmlsbD0iIzAwMDAwMCIvPjx0ZXh0IGZpbGw9IiMwMDAwMDAiIGZvbnQtZmFtaWx5PSJzYW5zLXNlcmlmIiBmb250LXNpemU9IjE0IiBsZW5ndGhBZGp1c3Q9InNwYWNpbmciIHRleHRMZW5ndGg9Ijc3IiB4PSIyMTI5Ljc1IiB5PSI1OC43NDIyIj5WaXNpdG9yQ2FyZDwvdGV4dD48bGluZSBzdHlsZT0ic3Ryb2tlOiMxODE4MTg7c3Ryb2tlLXdpZHRoOjAuNTsiIHgxPSIyMDY1LjUiIHgyPSIyMjM4LjUiIHkxPSI2OSIgeTI9IjY5Ii8+PGxpbmUgc3R5bGU9InN0cm9rZTojMTgxODE4O3N0cm9rZS13aWR0aDowLjU7IiB4MT0iMjA2NS41IiB4Mj0iMjIzOC41IiB5MT0iNzciIHkyPSI3NyIvPjxlbGxpcHNlIGN4PSIyMDc1LjUiIGN5PSI4OS45OTIyIiBmaWxsPSIjODRCRTg0IiByeD0iMyIgcnk9IjMiIHN0eWxlPSJzdHJva2U6IzAzODA0ODtzdHJva2Utd2lkdGg6MS4wOyIvPjx0ZXh0IGZpbGw9IiMwMDAwMDAiIGZvbnQtZmFtaWx5PSJzYW5zLXNlcmlmIiBmb250LXNpemU9IjE0IiBsZW5ndGhBZGp1c3Q9InNwYWNpbmciIHRleHRMZW5ndGg9IjE0OSIgeD0iMjA4NC41IiB5PSI5NC4yMzQ0Ij5nZXRDYXJkVHlwZSgpOiBTdHJpbmc8L3RleHQ+PGVsbGlwc2UgY3g9IjIwNzUuNSIgY3k9IjEwNC45NzY2IiBmaWxsPSIjODRCRTg0IiByeD0iMyIgcnk9IjMiIHN0eWxlPSJzdHJva2U6IzAzODA0ODtzdHJva2Utd2lkdGg6MS4wOyIvPjx0ZXh0IGZpbGw9IiMwMDAwMDAiIGZvbnQtZmFtaWx5PSJzYW5zLXNlcmlmIiBmb250LXNpemU9IjE0IiBsZW5ndGhBZGp1c3Q9InNwYWNpbmciIHRleHRMZW5ndGg9IjE0MiIgeD0iMjA4NC41IiB5PSIxMDkuMjE4OCI+YW5hbHl6ZVVzYWdlKCk6IHZvaWQ8L3RleHQ+PC9nPjwhLS1jbGFzcyBGbG9vckFjY2Vzc1N0cmF0ZWd5LS0+PGcgaWQ9ImVsZW1fRmxvb3JBY2Nlc3NTdHJhdGVneSI+PHJlY3QgY29kZUxpbmU9IjUyIiBmaWxsPSIjRjFGMUYxIiBoZWlnaHQ9IjYyLjk4NDQiIGlkPSJGbG9vckFjY2Vzc1N0cmF0ZWd5IiByeD0iMi41IiByeT0iMi41IiBzdHlsZT0ic3Ryb2tlOiMxODE4MTg7c3Ryb2tlLXdpZHRoOjAuNTsiIHdpZHRoPSI1MzQiIHg9IjciIHk9IjQ0LjUiLz48ZWxsaXBzZSBjeD0iMjAzLjI1IiBjeT0iNjAuNSIgZmlsbD0iI0FERDFCMiIgcng9IjExIiByeT0iMTEiIHN0eWxlPSJzdHJva2U6IzE4MTgxODtzdHJva2Utd2lkdGg6MS4wOyIvPjxwYXRoIGQ9Ik0yMDAuODc1LDY0Ljc1IEwyMDAuODc1LDY2LjUgTDIwNS44MTI1LDY2LjUgTDIwNS44MTI1LDY0Ljc1IEwyMDAuODc1LDY0Ljc1IFogTTIwMS41NjI1LDY1LjQzNzUgUTIwMS41NjI1LDY1LjQzNzUgMjAxLjU2MjUsNTYuMjUgTDE5OS44MTI1LDU2LjI1IFExOTkuODEyNSw1Ni4yNSAxOTkuODEyNSw2NS40Mzc1IEwyMDEuNTYyNSw2NS40Mzc1IFogTTIwNS4xMjUsNjUuNDM3NSBMMjA2Ljg3NSw2NS40Mzc1IFEyMDYuODc1LDY1LjQzNzUgMjA2Ljg3NSw2Mi42MjUgTDIwNS4xMjUsNjIuNjI1IFEyMDUuMTI1LDYyLjYyNSAyMDUuMTI1LDY1LjQzNzUgWiBNMjA1LjEyNSw1Ni4yNSBRMjA1LjEyNSw1Ni4yNSAyMDUuMTI1LDU5LjA2MjUgTDIwNi44NzUsNTkuMDYyNSBRMjA2Ljg3NSw1OS4wNjI1IDIwNi44NzUsNTYuMjUgTDIwNS4xMjUsNTYuMjUgWiBNMjAwLjg3NSw1Ni45Mzc1IEwyMDUuODEyNSw1Ni45Mzc1IEwyMDUuODEyNSw1NS4xODc1IEwyMDAuODc1LDU1LjE4NzUgTDIwMC44NzUsNTYuOTM3NSBaICIgZmlsbD0iIzAwMDAwMCIvPjx0ZXh0IGZpbGw9IiMwMDAwMDAiIGZvbnQtZmFtaWx5PSJzYW5zLXNlcmlmIiBmb250LXNpemU9IjE0IiBsZW5ndGhBZGp1c3Q9InNwYWNpbmciIHRleHRMZW5ndGg9IjEzMyIgeD0iMjIzLjc1IiB5PSI2Ni4yNDIyIj5GbG9vckFjY2Vzc1N0cmF0ZWd5PC90ZXh0PjxsaW5lIHN0eWxlPSJzdHJva2U6IzE4MTgxODtzdHJva2Utd2lkdGg6MC41OyIgeDE9IjgiIHgyPSI1NDAiIHkxPSI3Ni41IiB5Mj0iNzYuNSIvPjxsaW5lIHN0eWxlPSJzdHJva2U6IzE4MTgxODtzdHJva2Utd2lkdGg6MC41OyIgeDE9IjgiIHgyPSI1NDAiIHkxPSI4NC41IiB5Mj0iODQuNSIvPjxlbGxpcHNlIGN4PSIxOCIgY3k9Ijk3LjQ5MjIiIGZpbGw9IiM4NEJFODQiIHJ4PSIzIiByeT0iMyIgc3R5bGU9InN0cm9rZTojMDM4MDQ4O3N0cm9rZS13aWR0aDoxLjA7Ii8+PHRleHQgZmlsbD0iIzAwMDAwMCIgZm9udC1mYW1pbHk9InNhbnMtc2VyaWYiIGZvbnQtc2l6ZT0iMTQiIGxlbmd0aEFkanVzdD0ic3BhY2luZyIgdGV4dExlbmd0aD0iNTA4IiB4PSIyNyIgeT0iMTAxLjczNDQiPmNoZWNrQWNjZXNzKGNhcmQ6IENhcmQsIGZsb29yTGV2ZWw6IFN0cmluZywgcm9vbU51bWJlcjogU3RyaW5nKTogYm9vbGVhbjwvdGV4dD48L2c+PCEtLWNsYXNzIFJvb21BY2Nlc3NTdHJhdGVneS0tPjxnIGlkPSJlbGVtX1Jvb21BY2Nlc3NTdHJhdGVneSI+PHJlY3QgY29kZUxpbmU9IjU2IiBmaWxsPSIjRjFGMUYxIiBoZWlnaHQ9IjYyLjk4NDQiIGlkPSJSb29tQWNjZXNzU3RyYXRlZ3kiIHJ4PSIyLjUiIHJ5PSIyLjUiIHN0eWxlPSJzdHJva2U6IzE4MTgxODtzdHJva2Utd2lkdGg6MC41OyIgd2lkdGg9IjUzNCIgeD0iNTc2IiB5PSI0NC41Ii8+PGVsbGlwc2UgY3g9Ijc3NS4yNSIgY3k9IjYwLjUiIGZpbGw9IiNBREQxQjIiIHJ4PSIxMSIgcnk9IjExIiBzdHlsZT0ic3Ryb2tlOiMxODE4MTg7c3Ryb2tlLXdpZHRoOjEuMDsiLz48cGF0aCBkPSJNNzcyLjg3NSw2NC43NSBMNzcyLjg3NSw2Ni41IEw3NzcuODEyNSw2Ni41IEw3NzcuODEyNSw2NC43NSBMNzcyLjg3NSw2NC43NSBaIE03NzMuNTYyNSw2NS40Mzc1IFE3NzMuNTYyNSw2NS40Mzc1IDc3My41NjI1LDU2LjI1IEw3NzEuODEyNSw1Ni4yNSBRNzcxLjgxMjUsNTYuMjUgNzcxLjgxMjUsNjUuNDM3NSBMNzczLjU2MjUsNjUuNDM3NSBaIE03NzcuMTI1LDY1LjQzNzUgTDc3OC44NzUsNjUuNDM3NSBRNzc4Ljg3NSw2NS40Mzc1IDc3OC44NzUsNjIuNjI1IEw3NzcuMTI1LDYyLjYyNSBRNzc3LjEyNSw2Mi42MjUgNzc3LjEyNSw2NS40Mzc1IFogTTc3Ny4xMjUsNTYuMjUgUTc3Ny4xMjUsNTYuMjUgNzc3LjEyNSw1OS4wNjI1IEw3NzguODc1LDU5LjA2MjUgUTc3OC44NzUsNTkuMDYyNSA3NzguODc1LDU2LjI1IEw3NzcuMTI1LDU2LjI1IFogTTc3Mi44NzUsNTYuOTM3NSBMNzc3LjgxMjUsNTYuOTM3NSBMNzc3LjgxMjUsNTUuMTg3NSBMNzcyLjg3NSw1NS4xODc1IEw3NzIuODc1LDU2LjkzNzUgWiAiIGZpbGw9IiMwMDAwMDAiLz48dGV4dCBmaWxsPSIjMDAwMDAwIiBmb250LWZhbWlseT0ic2Fucy1zZXJpZiIgZm9udC1zaXplPSIxNCIgbGVuZ3RoQWRqdXN0PSJzcGFjaW5nIiB0ZXh0TGVuZ3RoPSIxMjciIHg9Ijc5NS43NSIgeT0iNjYuMjQyMiI+Um9vbUFjY2Vzc1N0cmF0ZWd5PC90ZXh0PjxsaW5lIHN0eWxlPSJzdHJva2U6IzE4MTgxODtzdHJva2Utd2lkdGg6MC41OyIgeDE9IjU3NyIgeDI9IjExMDkiIHkxPSI3Ni41IiB5Mj0iNzYuNSIvPjxsaW5lIHN0eWxlPSJzdHJva2U6IzE4MTgxODtzdHJva2Utd2lkdGg6MC41OyIgeDE9IjU3NyIgeDI9IjExMDkiIHkxPSI4NC41IiB5Mj0iODQuNSIvPjxlbGxpcHNlIGN4PSI1ODciIGN5PSI5Ny40OTIyIiBmaWxsPSIjODRCRTg0IiByeD0iMyIgcnk9IjMiIHN0eWxlPSJzdHJva2U6IzAzODA0ODtzdHJva2Utd2lkdGg6MS4wOyIvPjx0ZXh0IGZpbGw9IiMwMDAwMDAiIGZvbnQtZmFtaWx5PSJzYW5zLXNlcmlmIiBmb250LXNpemU9IjE0IiBsZW5ndGhBZGp1c3Q9InNwYWNpbmciIHRleHRMZW5ndGg9IjUwOCIgeD0iNTk2IiB5PSIxMDEuNzM0NCI+Y2hlY2tBY2Nlc3MoY2FyZDogQ2FyZCwgZmxvb3JMZXZlbDogU3RyaW5nLCByb29tTnVtYmVyOiBTdHJpbmcpOiBib29sZWFuPC90ZXh0PjwvZz48IS0tY2xhc3MgQWRtaW4tLT48ZyBpZD0iZWxlbV9BZG1pbiI+PHJlY3QgY29kZUxpbmU9IjYwIiBmaWxsPSIjRjFGMUYxIiBoZWlnaHQ9IjEzNy45MDYzIiBpZD0iQWRtaW4iIHJ4PSIyLjUiIHJ5PSIyLjUiIHN0eWxlPSJzdHJva2U6IzE4MTgxODtzdHJva2Utd2lkdGg6MC41OyIgd2lkdGg9IjcyOCIgeD0iMjI3NSIgeT0iNyIvPjxlbGxpcHNlIGN4PSIyNjE2Ljc1IiBjeT0iMjMiIGZpbGw9IiNBREQxQjIiIHJ4PSIxMSIgcnk9IjExIiBzdHlsZT0ic3Ryb2tlOiMxODE4MTg7c3Ryb2tlLXdpZHRoOjEuMDsiLz48cGF0aCBkPSJNMjYxNC4zNzUsMjcuMjUgTDI2MTQuMzc1LDI5IEwyNjE5LjMxMjUsMjkgTDI2MTkuMzEyNSwyNy4yNSBMMjYxNC4zNzUsMjcuMjUgWiBNMjYxNS4wNjI1LDI3LjkzNzUgUTI2MTUuMDYyNSwyNy45Mzc1IDI2MTUuMDYyNSwxOC43NSBMMjYxMy4zMTI1LDE4Ljc1IFEyNjEzLjMxMjUsMTguNzUgMjYxMy4zMTI1LDI3LjkzNzUgTDI2MTUuMDYyNSwyNy45Mzc1IFogTTI2MTguNjI1LDI3LjkzNzUgTDI2MjAuMzc1LDI3LjkzNzUgUTI2MjAuMzc1LDI3LjkzNzUgMjYyMC4zNzUsMjUuMTI1IEwyNjE4LjYyNSwyNS4xMjUgUTI2MTguNjI1LDI1LjEyNSAyNjE4LjYyNSwyNy45Mzc1IFogTTI2MTguNjI1LDE4Ljc1IFEyNjE4LjYyNSwxOC43NSAyNjE4LjYyNSwyMS41NjI1IEwyNjIwLjM3NSwyMS41NjI1IFEyNjIwLjM3NSwyMS41NjI1IDI2MjAuMzc1LDE4Ljc1IEwyNjE4LjYyNSwxOC43NSBaIE0yNjE0LjM3NSwxOS40Mzc1IEwyNjE5LjMxMjUsMTkuNDM3NSBMMjYxOS4zMTI1LDE3LjY4NzUgTDI2MTQuMzc1LDE3LjY4NzUgTDI2MTQuMzc1LDE5LjQzNzUgWiAiIGZpbGw9IiMwMDAwMDAiLz48dGV4dCBmaWxsPSIjMDAwMDAwIiBmb250LWZhbWlseT0ic2Fucy1zZXJpZiIgZm9udC1zaXplPSIxNCIgbGVuZ3RoQWRqdXN0PSJzcGFjaW5nIiB0ZXh0TGVuZ3RoPSIzNiIgeD0iMjYzNy4yNSIgeT0iMjguNzQyMiI+QWRtaW48L3RleHQ+PGxpbmUgc3R5bGU9InN0cm9rZTojMTgxODE4O3N0cm9rZS13aWR0aDowLjU7IiB4MT0iMjI3NiIgeDI9IjMwMDIiIHkxPSIzOSIgeTI9IjM5Ii8+PHJlY3QgZmlsbD0ibm9uZSIgaGVpZ2h0PSI2IiBzdHlsZT0ic3Ryb2tlOiNDODI5MzA7c3Ryb2tlLXdpZHRoOjEuMDsiIHdpZHRoPSI2IiB4PSIyMjgzIiB5PSI0OC45OTIyIi8+PHRleHQgZmlsbD0iIzAwMDAwMCIgZm9udC1mYW1pbHk9InNhbnMtc2VyaWYiIGZvbnQtc2l6ZT0iMTQiIGxlbmd0aEFkanVzdD0ic3BhY2luZyIgdGV4dExlbmd0aD0iODUiIHg9IjIyOTUiIHk9IjU2LjIzNDQiPmFkbWluSWQ6IGludDwvdGV4dD48cmVjdCBmaWxsPSJub25lIiBoZWlnaHQ9IjYiIHN0eWxlPSJzdHJva2U6I0M4MjkzMDtzdHJva2Utd2lkdGg6MS4wOyIgd2lkdGg9IjYiIHg9IjIyODMiIHk9IjYzLjk3NjYiLz48dGV4dCBmaWxsPSIjMDAwMDAwIiBmb250LWZhbWlseT0ic2Fucy1zZXJpZiIgZm9udC1zaXplPSIxNCIgbGVuZ3RoQWRqdXN0PSJzcGFjaW5nIiB0ZXh0TGVuZ3RoPSIyMjQiIHg9IjIyOTUiIHk9IjcxLjIxODgiPmNhcmREYXRhYmFzZTogTWFwJmx0O0ludGVnZXIsIENhcmQmZ3Q7PC90ZXh0PjxsaW5lIHN0eWxlPSJzdHJva2U6IzE4MTgxODtzdHJva2Utd2lkdGg6MC41OyIgeDE9IjIyNzYiIHgyPSIzMDAyIiB5MT0iNzYuOTY4OCIgeTI9Ijc2Ljk2ODgiLz48ZWxsaXBzZSBjeD0iMjI4NiIgY3k9Ijg5Ljk2MDkiIGZpbGw9IiM4NEJFODQiIHJ4PSIzIiByeT0iMyIgc3R5bGU9InN0cm9rZTojMDM4MDQ4O3N0cm9rZS13aWR0aDoxLjA7Ii8+PHRleHQgZmlsbD0iIzAwMDAwMCIgZm9udC1mYW1pbHk9InNhbnMtc2VyaWYiIGZvbnQtc2l6ZT0iMTQiIGxlbmd0aEFkanVzdD0ic3BhY2luZyIgdGV4dExlbmd0aD0iMzczIiB4PSIyMjk1IiB5PSI5NC4yMDMxIj5hZGRDYXJkKGNhcmQ6IENhcmQsIGFjY2Vzc0xldmVsczogTGlzdCZsdDtTdHJpbmcmZ3Q7KTogdm9pZDwvdGV4dD48ZWxsaXBzZSBjeD0iMjI4NiIgY3k9IjEwNC45NDUzIiBmaWxsPSIjODRCRTg0IiByeD0iMyIgcnk9IjMiIHN0eWxlPSJzdHJva2U6IzAzODA0ODtzdHJva2Utd2lkdGg6MS4wOyIvPjx0ZXh0IGZpbGw9IiMwMDAwMDAiIGZvbnQtZmFtaWx5PSJzYW5zLXNlcmlmIiBmb250LXNpemU9IjE0IiBsZW5ndGhBZGp1c3Q9InNwYWNpbmciIHRleHRMZW5ndGg9IjE5MSIgeD0iMjI5NSIgeT0iMTA5LjE4NzUiPmZpbmRDYXJkKGNhcmRJZDogaW50KTogQ2FyZDwvdGV4dD48ZWxsaXBzZSBjeD0iMjI4NiIgY3k9IjExOS45Mjk3IiBmaWxsPSIjODRCRTg0IiByeD0iMyIgcnk9IjMiIHN0eWxlPSJzdHJva2U6IzAzODA0ODtzdHJva2Utd2lkdGg6MS4wOyIvPjx0ZXh0IGZpbGw9IiMwMDAwMDAiIGZvbnQtZmFtaWx5PSJzYW5zLXNlcmlmIiBmb250LXNpemU9IjE0IiBsZW5ndGhBZGp1c3Q9InNwYWNpbmciIHRleHRMZW5ndGg9IjE5OCIgeD0iMjI5NSIgeT0iMTI0LjE3MTkiPnJldm9rZUNhcmQoY2FyZDogQ2FyZCk6IHZvaWQ8L3RleHQ+PGVsbGlwc2UgY3g9IjIyODYiIGN5PSIxMzQuOTE0MSIgZmlsbD0iIzg0QkU4NCIgcng9IjMiIHJ5PSIzIiBzdHlsZT0ic3Ryb2tlOiMwMzgwNDg7c3Ryb2tlLXdpZHRoOjEuMDsiLz48dGV4dCBmaWxsPSIjMDAwMDAwIiBmb250LWZhbWlseT0ic2Fucy1zZXJpZiIgZm9udC1zaXplPSIxNCIgbGVuZ3RoQWRqdXN0PSJzcGFjaW5nIiB0ZXh0TGVuZ3RoPSI3MDIiIHg9IjIyOTUiIHk9IjEzOS4xNTYzIj5tb2RpZnlDYXJkKGNhcmQ6IENhcmQsIG5ld093bmVyTmFtZTogU3RyaW5nLCBuZXdPd25lckFnZTogaW50LCBuZXdBY2Nlc3NMZXZlbHM6IExpc3QmbHQ7U3RyaW5nJmd0Oyk6IHZvaWQ8L3RleHQ+PC9nPjwhLS1jbGFzcyBBdWRpdFNlcnZpY2UtLT48ZyBpZD0iZWxlbV9BdWRpdFNlcnZpY2UiPjxyZWN0IGNvZGVMaW5lPSI2OSIgZmlsbD0iI0YxRjFGMSIgaGVpZ2h0PSI3Ny45Njg4IiBpZD0iQXVkaXRTZXJ2aWNlIiByeD0iMi41IiByeT0iMi41IiBzdHlsZT0ic3Ryb2tlOiMxODE4MTg7c3Ryb2tlLXdpZHRoOjAuNTsiIHdpZHRoPSIyMTEiIHg9IjM3MDcuNSIgeT0iMzciLz48ZWxsaXBzZSBjeD0iMzc2Ni43NSIgY3k9IjUzIiBmaWxsPSIjQUREMUIyIiByeD0iMTEiIHJ5PSIxMSIgc3R5bGU9InN0cm9rZTojMTgxODE4O3N0cm9rZS13aWR0aDoxLjA7Ii8+PHBhdGggZD0iTTM3NjQuMzc1LDU3LjI1IEwzNzY0LjM3NSw1OSBMMzc2OS4zMTI1LDU5IEwzNzY5LjMxMjUsNTcuMjUgTDM3NjQuMzc1LDU3LjI1IFogTTM3NjUuMDYyNSw1Ny45Mzc1IFEzNzY1LjA2MjUsNTcuOTM3NSAzNzY1LjA2MjUsNDguNzUgTDM3NjMuMzEyNSw0OC43NSBRMzc2My4zMTI1LDQ4Ljc1IDM3NjMuMzEyNSw1Ny45Mzc1IEwzNzY1LjA2MjUsNTcuOTM3NSBaIE0zNzY4LjYyNSw1Ny45Mzc1IEwzNzcwLjM3NSw1Ny45Mzc1IFEzNzcwLjM3NSw1Ny45Mzc1IDM3NzAuMzc1LDU1LjEyNSBMMzc2OC42MjUsNTUuMTI1IFEzNzY4LjYyNSw1NS4xMjUgMzc2OC42MjUsNTcuOTM3NSBaIE0zNzY4LjYyNSw0OC43NSBRMzc2OC42MjUsNDguNzUgMzc2OC42MjUsNTEuNTYyNSBMMzc3MC4zNzUsNTEuNTYyNSBRMzc3MC4zNzUsNTEuNTYyNSAzNzcwLjM3NSw0OC43NSBMMzc2OC42MjUsNDguNzUgWiBNMzc2NC4zNzUsNDkuNDM3NSBMMzc2OS4zMTI1LDQ5LjQzNzUgTDM3NjkuMzEyNSw0Ny42ODc1IEwzNzY0LjM3NSw0Ny42ODc1IEwzNzY0LjM3NSw0OS40Mzc1IFogIiBmaWxsPSIjMDAwMDAwIi8+PHRleHQgZmlsbD0iIzAwMDAwMCIgZm9udC1mYW1pbHk9InNhbnMtc2VyaWYiIGZvbnQtc2l6ZT0iMTQiIGxlbmd0aEFkanVzdD0ic3BhY2luZyIgdGV4dExlbmd0aD0iODQiIHg9IjM3ODcuMjUiIHk9IjU4Ljc0MjIiPkF1ZGl0U2VydmljZTwvdGV4dD48bGluZSBzdHlsZT0ic3Ryb2tlOiMxODE4MTg7c3Ryb2tlLXdpZHRoOjAuNTsiIHgxPSIzNzA4LjUiIHgyPSIzOTE3LjUiIHkxPSI2OSIgeTI9IjY5Ii8+PGxpbmUgc3R5bGU9InN0cm9rZTojMTgxODE4O3N0cm9rZS13aWR0aDowLjU7IiB4MT0iMzcwOC41IiB4Mj0iMzkxNy41IiB5MT0iNzciIHkyPSI3NyIvPjxlbGxpcHNlIGN4PSIzNzE4LjUiIGN5PSI4OS45OTIyIiBmaWxsPSIjODRCRTg0IiByeD0iMyIgcnk9IjMiIHN0eWxlPSJzdHJva2U6IzAzODA0ODtzdHJva2Utd2lkdGg6MS4wOyIvPjx0ZXh0IGZpbGw9IiMwMDAwMDAiIGZvbnQtZmFtaWx5PSJzYW5zLXNlcmlmIiBmb250LXNpemU9IjE0IiBsZW5ndGhBZGp1c3Q9InNwYWNpbmciIHRleHRMZW5ndGg9IjE4NSIgeD0iMzcyNy41IiB5PSI5NC4yMzQ0Ij5sb2cobWVzc2FnZTogU3RyaW5nKTogdm9pZDwvdGV4dD48ZWxsaXBzZSBjeD0iMzcxOC41IiBjeT0iMTA0Ljk3NjYiIGZpbGw9IiM4NEJFODQiIHJ4PSIzIiByeT0iMyIgc3R5bGU9InN0cm9rZTojMDM4MDQ4O3N0cm9rZS13aWR0aDoxLjA7Ii8+PHRleHQgZmlsbD0iIzAwMDAwMCIgZm9udC1mYW1pbHk9InNhbnMtc2VyaWYiIGZvbnQtc2l6ZT0iMTQiIGxlbmd0aEFkanVzdD0ic3BhY2luZyIgdGV4dExlbmd0aD0iMTYzIiB4PSIzNzI3LjUiIHk9IjEwOS4yMTg4Ij5nZXRMb2dzKCk6IExpc3QmbHQ7U3RyaW5nJmd0OzwvdGV4dD48L2c+PCEtLWNsYXNzIExvZ2dlci0tPjxnIGlkPSJlbGVtX0xvZ2dlciI+PHJlY3QgY29kZUxpbmU9Ijc0IiBmaWxsPSIjRjFGMUYxIiBoZWlnaHQ9IjkyLjk1MzEiIGlkPSJMb2dnZXIiIHJ4PSIyLjUiIHJ5PSIyLjUiIHN0eWxlPSJzdHJva2U6IzE4MTgxODtzdHJva2Utd2lkdGg6MC41OyIgd2lkdGg9IjIxMSIgeD0iMzgzMC41IiB5PSIzNDAiLz48ZWxsaXBzZSBjeD0iMzkxMC43NSIgY3k9IjM1NiIgZmlsbD0iI0FERDFCMiIgcng9IjExIiByeT0iMTEiIHN0eWxlPSJzdHJva2U6IzE4MTgxODtzdHJva2Utd2lkdGg6MS4wOyIvPjxwYXRoIGQ9Ik0zOTA4LjM3NSwzNjAuMjUgTDM5MDguMzc1LDM2MiBMMzkxMy4zMTI1LDM2MiBMMzkxMy4zMTI1LDM2MC4yNSBMMzkwOC4zNzUsMzYwLjI1IFogTTM5MDkuMDYyNSwzNjAuOTM3NSBRMzkwOS4wNjI1LDM2MC45Mzc1IDM5MDkuMDYyNSwzNTEuNzUgTDM5MDcuMzEyNSwzNTEuNzUgUTM5MDcuMzEyNSwzNTEuNzUgMzkwNy4zMTI1LDM2MC45Mzc1IEwzOTA5LjA2MjUsMzYwLjkzNzUgWiBNMzkxMi42MjUsMzYwLjkzNzUgTDM5MTQuMzc1LDM2MC45Mzc1IFEzOTE0LjM3NSwzNjAuOTM3NSAzOTE0LjM3NSwzNTguMTI1IEwzOTEyLjYyNSwzNTguMTI1IFEzOTEyLjYyNSwzNTguMTI1IDM5MTIuNjI1LDM2MC45Mzc1IFogTTM5MTIuNjI1LDM1MS43NSBRMzkxMi42MjUsMzUxLjc1IDM5MTIuNjI1LDM1NC41NjI1IEwzOTE0LjM3NSwzNTQuNTYyNSBRMzkxNC4zNzUsMzU0LjU2MjUgMzkxNC4zNzUsMzUxLjc1IEwzOTEyLjYyNSwzNTEuNzUgWiBNMzkwOC4zNzUsMzUyLjQzNzUgTDM5MTMuMzEyNSwzNTIuNDM3NSBMMzkxMy4zMTI1LDM1MC42ODc1IEwzOTA4LjM3NSwzNTAuNjg3NSBMMzkwOC4zNzUsMzUyLjQzNzUgWiAiIGZpbGw9IiMwMDAwMDAiLz48dGV4dCBmaWxsPSIjMDAwMDAwIiBmb250LWZhbWlseT0ic2Fucy1zZXJpZiIgZm9udC1zaXplPSIxNCIgbGVuZ3RoQWRqdXN0PSJzcGFjaW5nIiB0ZXh0TGVuZ3RoPSI0MiIgeD0iMzkzMS4yNSIgeT0iMzYxLjc0MjIiPkxvZ2dlcjwvdGV4dD48bGluZSBzdHlsZT0ic3Ryb2tlOiMxODE4MTg7c3Ryb2tlLXdpZHRoOjAuNTsiIHgxPSIzODMxLjUiIHgyPSI0MDQwLjUiIHkxPSIzNzIiIHkyPSIzNzIiLz48cmVjdCBmaWxsPSJub25lIiBoZWlnaHQ9IjYiIHN0eWxlPSJzdHJva2U6I0M4MjkzMDtzdHJva2Utd2lkdGg6MS4wOyIgd2lkdGg9IjYiIHg9IjM4MzguNSIgeT0iMzgxLjk5MjIiLz48dGV4dCBmaWxsPSIjMDAwMDAwIiBmb250LWZhbWlseT0ic2Fucy1zZXJpZiIgZm9udC1zaXplPSIxNCIgbGVuZ3RoQWRqdXN0PSJzcGFjaW5nIiB0ZXh0TGVuZ3RoPSIxMTIiIHg9IjM4NTAuNSIgeT0iMzg5LjIzNDQiPmluc3RhbmNlOiBMb2dnZXI8L3RleHQ+PGxpbmUgc3R5bGU9InN0cm9rZTojMTgxODE4O3N0cm9rZS13aWR0aDowLjU7IiB4MT0iMzgzMS41IiB4Mj0iNDA0MC41IiB5MT0iMzk0Ljk4NDQiIHkyPSIzOTQuOTg0NCIvPjxlbGxpcHNlIGN4PSIzODQxLjUiIGN5PSI0MDcuOTc2NiIgZmlsbD0iIzg0QkU4NCIgcng9IjMiIHJ5PSIzIiBzdHlsZT0ic3Ryb2tlOiMwMzgwNDg7c3Ryb2tlLXdpZHRoOjEuMDsiLz48dGV4dCBmaWxsPSIjMDAwMDAwIiBmb250LWZhbWlseT0ic2Fucy1zZXJpZiIgZm9udC1zaXplPSIxNCIgbGVuZ3RoQWRqdXN0PSJzcGFjaW5nIiB0ZXh0TGVuZ3RoPSIxNDkiIHg9IjM4NTAuNSIgeT0iNDEyLjIxODgiPmdldEluc3RhbmNlKCk6IExvZ2dlcjwvdGV4dD48ZWxsaXBzZSBjeD0iMzg0MS41IiBjeT0iNDIyLjk2MDkiIGZpbGw9IiM4NEJFODQiIHJ4PSIzIiByeT0iMyIgc3R5bGU9InN0cm9rZTojMDM4MDQ4O3N0cm9rZS13aWR0aDoxLjA7Ii8+PHRleHQgZmlsbD0iIzAwMDAwMCIgZm9udC1mYW1pbHk9InNhbnMtc2VyaWYiIGZvbnQtc2l6ZT0iMTQiIGxlbmd0aEFkanVzdD0ic3BhY2luZyIgdGV4dExlbmd0aD0iMTg1IiB4PSIzODUwLjUiIHk9IjQyNy4yMDMxIj5sb2cobWVzc2FnZTogU3RyaW5nKTogdm9pZDwvdGV4dD48L2c+PCEtLWNsYXNzIFRpbWVMb2dTZXJ2aWNlLS0+PGcgaWQ9ImVsZW1fVGltZUxvZ1NlcnZpY2UiPjxyZWN0IGNvZGVMaW5lPSI4MCIgZmlsbD0iI0YxRjFGMSIgaGVpZ2h0PSI3Ny45Njg4IiBpZD0iVGltZUxvZ1NlcnZpY2UiIHJ4PSIyLjUiIHJ5PSIyLjUiIHN0eWxlPSJzdHJva2U6IzE4MTgxODtzdHJva2Utd2lkdGg6MC41OyIgd2lkdGg9IjMyOSIgeD0iMzc3MS41IiB5PSI2MjgiLz48ZWxsaXBzZSBjeD0iMzg4Mi4yNSIgY3k9IjY0NCIgZmlsbD0iI0FERDFCMiIgcng9IjExIiByeT0iMTEiIHN0eWxlPSJzdHJva2U6IzE4MTgxODtzdHJva2Utd2lkdGg6MS4wOyIvPjxwYXRoIGQ9Ik0zODc5Ljg3NSw2NDguMjUgTDM4NzkuODc1LDY1MCBMMzg4NC44MTI1LDY1MCBMMzg4NC44MTI1LDY0OC4yNSBMMzg3OS44NzUsNjQ4LjI1IFogTTM4ODAuNTYyNSw2NDguOTM3NSBRMzg4MC41NjI1LDY0OC45Mzc1IDM4ODAuNTYyNSw2MzkuNzUgTDM4NzguODEyNSw2MzkuNzUgUTM4NzguODEyNSw2MzkuNzUgMzg3OC44MTI1LDY0OC45Mzc1IEwzODgwLjU2MjUsNjQ4LjkzNzUgWiBNMzg4NC4xMjUsNjQ4LjkzNzUgTDM4ODUuODc1LDY0OC45Mzc1IFEzODg1Ljg3NSw2NDguOTM3NSAzODg1Ljg3NSw2NDYuMTI1IEwzODg0LjEyNSw2NDYuMTI1IFEzODg0LjEyNSw2NDYuMTI1IDM4ODQuMTI1LDY0OC45Mzc1IFogTTM4ODQuMTI1LDYzOS43NSBRMzg4NC4xMjUsNjM5Ljc1IDM4ODQuMTI1LDY0Mi41NjI1IEwzODg1Ljg3NSw2NDIuNTYyNSBRMzg4NS44NzUsNjQyLjU2MjUgMzg4NS44NzUsNjM5Ljc1IEwzODg0LjEyNSw2MzkuNzUgWiBNMzg3OS44NzUsNjQwLjQzNzUgTDM4ODQuODEyNSw2NDAuNDM3NSBMMzg4NC44MTI1LDYzOC42ODc1IEwzODc5Ljg3NSw2MzguNjg3NSBMMzg3OS44NzUsNjQwLjQzNzUgWiAiIGZpbGw9IiMwMDAwMDAiLz48dGV4dCBmaWxsPSIjMDAwMDAwIiBmb250LWZhbWlseT0ic2Fucy1zZXJpZiIgZm9udC1zaXplPSIxNCIgbGVuZ3RoQWRqdXN0PSJzcGFjaW5nIiB0ZXh0TGVuZ3RoPSI5OSIgeD0iMzkwMi43NSIgeT0iNjQ5Ljc0MjIiPlRpbWVMb2dTZXJ2aWNlPC90ZXh0PjxsaW5lIHN0eWxlPSJzdHJva2U6IzE4MTgxODtzdHJva2Utd2lkdGg6MC41OyIgeDE9IjM3NzIuNSIgeDI9IjQwOTkuNSIgeTE9IjY2MCIgeTI9IjY2MCIvPjxsaW5lIHN0eWxlPSJzdHJva2U6IzE4MTgxODtzdHJva2Utd2lkdGg6MC41OyIgeDE9IjM3NzIuNSIgeDI9IjQwOTkuNSIgeTE9IjY2OCIgeTI9IjY2OCIvPjxlbGxpcHNlIGN4PSIzNzgyLjUiIGN5PSI2ODAuOTkyMiIgZmlsbD0iIzg0QkU4NCIgcng9IjMiIHJ5PSIzIiBzdHlsZT0ic3Ryb2tlOiMwMzgwNDg7c3Ryb2tlLXdpZHRoOjEuMDsiLz48dGV4dCBmaWxsPSIjMDAwMDAwIiBmb250LWZhbWlseT0ic2Fucy1zZXJpZiIgZm9udC1zaXplPSIxNCIgbGVuZ3RoQWRqdXN0PSJzcGFjaW5nIiB0ZXh0TGVuZ3RoPSIyMzQiIHg9IjM3OTEuNSIgeT0iNjg1LjIzNDQiPmNhbkFjY2Vzc05vdyhjYXJkOiBDYXJkKTogYm9vbGVhbjwvdGV4dD48ZWxsaXBzZSBjeD0iMzc4Mi41IiBjeT0iNjk1Ljk3NjYiIGZpbGw9IiM4NEJFODQiIHJ4PSIzIiByeT0iMyIgc3R5bGU9InN0cm9rZTojMDM4MDQ4O3N0cm9rZS13aWR0aDoxLjA7Ii8+PHRleHQgZmlsbD0iIzAwMDAwMCIgZm9udC1mYW1pbHk9InNhbnMtc2VyaWYiIGZvbnQtc2l6ZT0iMTQiIGxlbmd0aEFkanVzdD0ic3BhY2luZyIgdGV4dExlbmd0aD0iMzAzIiB4PSIzNzkxLjUiIHk9IjcwMC4yMTg4Ij5nZXRBY2Nlc3NTdGF0dXMoY2FuQWNjZXNzOiBib29sZWFuKTogU3RyaW5nPC90ZXh0PjwvZz48IS0tY2xhc3MgQ2FyZE1hbmFnZXItLT48ZyBpZD0iZWxlbV9DYXJkTWFuYWdlciI+PHJlY3QgY29kZUxpbmU9Ijg1IiBmaWxsPSIjRjFGMUYxIiBoZWlnaHQ9IjYyLjk4NDQiIGlkPSJDYXJkTWFuYWdlciIgcng9IjIuNSIgcnk9IjIuNSIgc3R5bGU9InN0cm9rZTojMTgxODE4O3N0cm9rZS13aWR0aDowLjU7IiB3aWR0aD0iNjM0IiB4PSIzMDM4IiB5PSI0NC41Ii8+PGVsbGlwc2UgY3g9IjMzMTIuMjUiIGN5PSI2MC41IiBmaWxsPSIjQUREMUIyIiByeD0iMTEiIHJ5PSIxMSIgc3R5bGU9InN0cm9rZTojMTgxODE4O3N0cm9rZS13aWR0aDoxLjA7Ii8+PHBhdGggZD0iTTMzMDkuODc1LDY0Ljc1IEwzMzA5Ljg3NSw2Ni41IEwzMzE0LjgxMjUsNjYuNSBMMzMxNC44MTI1LDY0Ljc1IEwzMzA5Ljg3NSw2NC43NSBaIE0zMzEwLjU2MjUsNjUuNDM3NSBRMzMxMC41NjI1LDY1LjQzNzUgMzMxMC41NjI1LDU2LjI1IEwzMzA4LjgxMjUsNTYuMjUgUTMzMDguODEyNSw1Ni4yNSAzMzA4LjgxMjUsNjUuNDM3NSBMMzMxMC41NjI1LDY1LjQzNzUgWiBNMzMxNC4xMjUsNjUuNDM3NSBMMzMxNS44NzUsNjUuNDM3NSBRMzMxNS44NzUsNjUuNDM3NSAzMzE1Ljg3NSw2Mi42MjUgTDMzMTQuMTI1LDYyLjYyNSBRMzMxNC4xMjUsNjIuNjI1IDMzMTQuMTI1LDY1LjQzNzUgWiBNMzMxNC4xMjUsNTYuMjUgUTMzMTQuMTI1LDU2LjI1IDMzMTQuMTI1LDU5LjA2MjUgTDMzMTUuODc1LDU5LjA2MjUgUTMzMTUuODc1LDU5LjA2MjUgMzMxNS44NzUsNTYuMjUgTDMzMTQuMTI1LDU2LjI1IFogTTMzMDkuODc1LDU2LjkzNzUgTDMzMTQuODEyNSw1Ni45Mzc1IEwzMzE0LjgxMjUsNTUuMTg3NSBMMzMwOS44NzUsNTUuMTg3NSBMMzMwOS44NzUsNTYuOTM3NSBaICIgZmlsbD0iIzAwMDAwMCIvPjx0ZXh0IGZpbGw9IiMwMDAwMDAiIGZvbnQtZmFtaWx5PSJzYW5zLXNlcmlmIiBmb250LXNpemU9IjE0IiBsZW5ndGhBZGp1c3Q9InNwYWNpbmciIHRleHRMZW5ndGg9Ijc3IiB4PSIzMzMyLjc1IiB5PSI2Ni4yNDIyIj5DYXJkTWFuYWdlcjwvdGV4dD48bGluZSBzdHlsZT0ic3Ryb2tlOiMxODE4MTg7c3Ryb2tlLXdpZHRoOjAuNTsiIHgxPSIzMDM5IiB4Mj0iMzY3MSIgeTE9Ijc2LjUiIHkyPSI3Ni41Ii8+PGxpbmUgc3R5bGU9InN0cm9rZTojMTgxODE4O3N0cm9rZS13aWR0aDowLjU7IiB4MT0iMzAzOSIgeDI9IjM2NzEiIHkxPSI4NC41IiB5Mj0iODQuNSIvPjxlbGxpcHNlIGN4PSIzMDQ5IiBjeT0iOTcuNDkyMiIgZmlsbD0iIzg0QkU4NCIgcng9IjMiIHJ5PSIzIiBzdHlsZT0ic3Ryb2tlOiMwMzgwNDg7c3Ryb2tlLXdpZHRoOjEuMDsiLz48dGV4dCBmaWxsPSIjMDAwMDAwIiBmb250LWZhbWlseT0ic2Fucy1zZXJpZiIgZm9udC1zaXplPSIxNCIgbGVuZ3RoQWRqdXN0PSJzcGFjaW5nIiB0ZXh0TGVuZ3RoPSI2MDgiIHg9IjMwNTgiIHk9IjEwMS43MzQ0Ij5jcmVhdGVDYXJkKG93bmVyTmFtZTogU3RyaW5nLCBvd25lckFnZTogaW50LCBwYXNzd29yZDogU3RyaW5nLCBjYXJkVHlwZTogU3RyaW5nKTogQ2FyZDwvdGV4dD48L2c+PCEtLWNsYXNzIFVzZXJMb2dEZWNvcmF0b3ItLT48ZyBpZD0iZWxlbV9Vc2VyTG9nRGVjb3JhdG9yIj48cmVjdCBjb2RlTGluZT0iODkiIGZpbGw9IiNGMUYxRjEiIGhlaWdodD0iOTIuOTUzMSIgaWQ9IlVzZXJMb2dEZWNvcmF0b3IiIHJ4PSIyLjUiIHJ5PSIyLjUiIHN0eWxlPSJzdHJva2U6IzE4MTgxODtzdHJva2Utd2lkdGg6MC41OyIgd2lkdGg9IjIxMSIgeD0iMzk1My41IiB5PSIyOS41Ii8+PGVsbGlwc2UgY3g9IjM5OTguNzUiIGN5PSI0NS41IiBmaWxsPSIjQUREMUIyIiByeD0iMTEiIHJ5PSIxMSIgc3R5bGU9InN0cm9rZTojMTgxODE4O3N0cm9rZS13aWR0aDoxLjA7Ii8+PHBhdGggZD0iTTM5OTYuMzc1LDQ5Ljc1IEwzOTk2LjM3NSw1MS41IEw0MDAxLjMxMjUsNTEuNSBMNDAwMS4zMTI1LDQ5Ljc1IEwzOTk2LjM3NSw0OS43NSBaIE0zOTk3LjA2MjUsNTAuNDM3NSBRMzk5Ny4wNjI1LDUwLjQzNzUgMzk5Ny4wNjI1LDQxLjI1IEwzOTk1LjMxMjUsNDEuMjUgUTM5OTUuMzEyNSw0MS4yNSAzOTk1LjMxMjUsNTAuNDM3NSBMMzk5Ny4wNjI1LDUwLjQzNzUgWiBNNDAwMC42MjUsNTAuNDM3NSBMNDAwMi4zNzUsNTAuNDM3NSBRNDAwMi4zNzUsNTAuNDM3NSA0MDAyLjM3NSw0Ny42MjUgTDQwMDAuNjI1LDQ3LjYyNSBRNDAwMC42MjUsNDcuNjI1IDQwMDAuNjI1LDUwLjQzNzUgWiBNNDAwMC42MjUsNDEuMjUgUTQwMDAuNjI1LDQxLjI1IDQwMDAuNjI1LDQ0LjA2MjUgTDQwMDIuMzc1LDQ0LjA2MjUgUTQwMDIuMzc1LDQ0LjA2MjUgNDAwMi4zNzUsNDEuMjUgTDQwMDAuNjI1LDQxLjI1IFogTTM5OTYuMzc1LDQxLjkzNzUgTDQwMDEuMzEyNSw0MS45Mzc1IEw0MDAxLjMxMjUsNDAuMTg3NSBMMzk5Ni4zNzUsNDAuMTg3NSBMMzk5Ni4zNzUsNDEuOTM3NSBaICIgZmlsbD0iIzAwMDAwMCIvPjx0ZXh0IGZpbGw9IiMwMDAwMDAiIGZvbnQtZmFtaWx5PSJzYW5zLXNlcmlmIiBmb250LXNpemU9IjE0IiBsZW5ndGhBZGp1c3Q9InNwYWNpbmciIHRleHRMZW5ndGg9IjExMiIgeD0iNDAxOS4yNSIgeT0iNTEuMjQyMiI+VXNlckxvZ0RlY29yYXRvcjwvdGV4dD48bGluZSBzdHlsZT0ic3Ryb2tlOiMxODE4MTg7c3Ryb2tlLXdpZHRoOjAuNTsiIHgxPSIzOTU0LjUiIHgyPSI0MTYzLjUiIHkxPSI2MS41IiB5Mj0iNjEuNSIvPjxyZWN0IGZpbGw9Im5vbmUiIGhlaWdodD0iNiIgc3R5bGU9InN0cm9rZTojQzgyOTMwO3N0cm9rZS13aWR0aDoxLjA7IiB3aWR0aD0iNiIgeD0iMzk2MS41IiB5PSI3MS40OTIyIi8+PHRleHQgZmlsbD0iIzAwMDAwMCIgZm9udC1mYW1pbHk9InNhbnMtc2VyaWYiIGZvbnQtc2l6ZT0iMTQiIGxlbmd0aEFkanVzdD0ic3BhY2luZyIgdGV4dExlbmd0aD0iOTgiIHg9IjM5NzMuNSIgeT0iNzguNzM0NCI+bG9nZ2VyOiBMb2dnZXI8L3RleHQ+PHJlY3QgZmlsbD0ibm9uZSIgaGVpZ2h0PSI2IiBzdHlsZT0ic3Ryb2tlOiNDODI5MzA7c3Ryb2tlLXdpZHRoOjEuMDsiIHdpZHRoPSI2IiB4PSIzOTYxLjUiIHk9Ijg2LjQ3NjYiLz48dGV4dCBmaWxsPSIjMDAwMDAwIiBmb250LWZhbWlseT0ic2Fucy1zZXJpZiIgZm9udC1zaXplPSIxNCIgbGVuZ3RoQWRqdXN0PSJzcGFjaW5nIiB0ZXh0TGVuZ3RoPSIxMTMiIHg9IjM5NzMuNSIgeT0iOTMuNzE4OCI+dXNlck5hbWU6IFN0cmluZzwvdGV4dD48bGluZSBzdHlsZT0ic3Ryb2tlOiMxODE4MTg7c3Ryb2tlLXdpZHRoOjAuNTsiIHgxPSIzOTU0LjUiIHgyPSI0MTYzLjUiIHkxPSI5OS40Njg4IiB5Mj0iOTkuNDY4OCIvPjxlbGxpcHNlIGN4PSIzOTY0LjUiIGN5PSIxMTIuNDYwOSIgZmlsbD0iIzg0QkU4NCIgcng9IjMiIHJ5PSIzIiBzdHlsZT0ic3Ryb2tlOiMwMzgwNDg7c3Ryb2tlLXdpZHRoOjEuMDsiLz48dGV4dCBmaWxsPSIjMDAwMDAwIiBmb250LWZhbWlseT0ic2Fucy1zZXJpZiIgZm9udC1zaXplPSIxNCIgbGVuZ3RoQWRqdXN0PSJzcGFjaW5nIiB0ZXh0TGVuZ3RoPSIxODUiIHg9IjM5NzMuNSIgeT0iMTE2LjcwMzEiPmxvZyhtZXNzYWdlOiBTdHJpbmcpOiB2b2lkPC90ZXh0PjwvZz48IS0tbGluayBBY2Nlc3NDb250cm9sIHRvIEFjY2Vzc1N0cmF0ZWd5LS0+PGcgaWQ9ImxpbmtfQWNjZXNzQ29udHJvbF9BY2Nlc3NTdHJhdGVneSI+PHBhdGggY29kZUxpbmU9Ijk2IiBkPSJNMTI4NS4yLDEzMC4wMyBDMTE3Mi45MywxOTQuODkgOTkxLjg1NTUsMjk5LjUwODggOTAxLjEyNTUsMzUxLjkxODggIiBmaWxsPSJub25lIiBpZD0iQWNjZXNzQ29udHJvbC10by1BY2Nlc3NTdHJhdGVneSIgc3R5bGU9InN0cm9rZTojMTgxODE4O3N0cm9rZS13aWR0aDoxLjA7Ii8+PHBvbHlnb24gZmlsbD0iIzE4MTgxOCIgcG9pbnRzPSI4OTUuOTMsMzU0LjkyLDkwNS43MjQsMzUzLjg4MTksOTAwLjI1OTYsMzUyLjQxOSw5MDEuNzIyNSwzNDYuOTU0Niw4OTUuOTMsMzU0LjkyIiBzdHlsZT0ic3Ryb2tlOiMxODE4MTg7c3Ryb2tlLXdpZHRoOjEuMDsiLz48L2c+PCEtLWxpbmsgQWNjZXNzQ29udHJvbCB0byBDYXJkLS0+PGcgaWQ9ImxpbmtfQWNjZXNzQ29udHJvbF9DYXJkIj48cGF0aCBjb2RlTGluZT0iOTciIGQ9Ik0xNDkyLjE4LDEzMC4wMyBDMTU5My41NywxNzYuNzIgMTczNy42MiwyNDMuMDQwNCAxODU1Ljg5LDI5Ny41MDA0ICIgZmlsbD0ibm9uZSIgaWQ9IkFjY2Vzc0NvbnRyb2wtdG8tQ2FyZCIgc3R5bGU9InN0cm9rZTojMTgxODE4O3N0cm9rZS13aWR0aDoxLjA7Ii8+PHBvbHlnb24gZmlsbD0iIzE4MTgxOCIgcG9pbnRzPSIxODYxLjM0LDMwMC4wMSwxODU0LjgzODEsMjkyLjYxMjQsMTg1Ni43OTg0LDI5Ny45MTg3LDE4NTEuNDkyLDI5OS44NzksMTg2MS4zNCwzMDAuMDEiIHN0eWxlPSJzdHJva2U6IzE4MTgxODtzdHJva2Utd2lkdGg6MS4wOyIvPjwvZz48IS0tbGluayBBZG1pbkNhcmQgdG8gQ2FyZC0tPjxnIGlkPSJsaW5rX0FkbWluQ2FyZF9DYXJkIj48cGF0aCBjb2RlTGluZT0iOTgiIGQ9Ik0xNzcwLjk0LDExNS4xNCBDMTc5NS4wNiwxMzguNzUgMTgxNS4xMDk0LDE1OC4zOTYyIDE4NDkuODE5NCwxOTIuMzg2MiAiIGZpbGw9Im5vbmUiIGlkPSJBZG1pbkNhcmQtdG8tQ2FyZCIgc3R5bGU9InN0cm9rZTojMTgxODE4O3N0cm9rZS13aWR0aDoxLjA7Ii8+PHBvbHlnb24gZmlsbD0ibm9uZSIgcG9pbnRzPSIxODYyLjY4LDIwNC45OCwxODU0LjAxNzMsMTg4LjA5OTMsMTg0NS42MjE0LDE5Ni42NzMsMTg2Mi42OCwyMDQuOTgiIHN0eWxlPSJzdHJva2U6IzE4MTgxODtzdHJva2Utd2lkdGg6MS4wOyIvPjwvZz48IS0tbGluayBFbXBsb3llZUNhcmQgdG8gQ2FyZC0tPjxnIGlkPSJsaW5rX0VtcGxveWVlQ2FyZF9DYXJkIj48cGF0aCBjb2RlTGluZT0iOTkiIGQ9Ik0xOTU0Ljk4LDExNS4xNCBDMTk2My4wMiwxMzguNzUgMTk2OC4xODk3LDE1My45NTAxIDE5NzkuNzU5NywxODcuOTQwMSAiIGZpbGw9Im5vbmUiIGlkPSJFbXBsb3llZUNhcmQtdG8tQ2FyZCIgc3R5bGU9InN0cm9rZTojMTgxODE4O3N0cm9rZS13aWR0aDoxLjA7Ii8+PHBvbHlnb24gZmlsbD0ibm9uZSIgcG9pbnRzPSIxOTg1LjU2LDIwNC45OCwxOTg1LjQzOTcsMTg2LjAwNjcsMTk3NC4wNzk4LDE4OS44NzM2LDE5ODUuNTYsMjA0Ljk4IiBzdHlsZT0ic3Ryb2tlOiMxODE4MTg7c3Ryb2tlLXdpZHRoOjEuMDsiLz48L2c+PCEtLWxpbmsgVmlzaXRvckNhcmQgdG8gQ2FyZC0tPjxnIGlkPSJsaW5rX1Zpc2l0b3JDYXJkX0NhcmQiPjxwYXRoIGNvZGVMaW5lPSIxMDAiIGQ9Ik0yMTM5LjAyLDExNS4xNCBDMjEzMC45OCwxMzguNzUgMjEyNS44MTAzLDE1My45NTAxIDIxMTQuMjQwMywxODcuOTQwMSAiIGZpbGw9Im5vbmUiIGlkPSJWaXNpdG9yQ2FyZC10by1DYXJkIiBzdHlsZT0ic3Ryb2tlOiMxODE4MTg7c3Ryb2tlLXdpZHRoOjEuMDsiLz48cG9seWdvbiBmaWxsPSJub25lIiBwb2ludHM9IjIxMDguNDQsMjA0Ljk4LDIxMTkuOTIwMiwxODkuODczNiwyMTA4LjU2MDMsMTg2LjAwNjcsMjEwOC40NCwyMDQuOTgiIHN0eWxlPSJzdHJva2U6IzE4MTgxODtzdHJva2Utd2lkdGg6MS4wOyIvPjwvZz48IS0tbGluayBGbG9vckFjY2Vzc1N0cmF0ZWd5IHRvIEFjY2Vzc1N0cmF0ZWd5LS0+PGcgaWQ9ImxpbmtfRmxvb3JBY2Nlc3NTdHJhdGVneV9BY2Nlc3NTdHJhdGVneSI+PHBhdGggY29kZUxpbmU9IjEwMSIgZD0iTTMzMC4zOCwxMDcuNTcgQzQzOS4zLDE2Ni42MiA2NjEuNzA2MywyODcuMjAwNCA3NzAuNzA2MywzNDYuMzAwNCAiIGZpbGw9Im5vbmUiIGlkPSJGbG9vckFjY2Vzc1N0cmF0ZWd5LXRvLUFjY2Vzc1N0cmF0ZWd5IiBzdHlsZT0ic3Ryb2tlOiMxODE4MTg7c3Ryb2tlLXdpZHRoOjEuMDsiLz48cG9seWdvbiBmaWxsPSJub25lIiBwb2ludHM9Ijc4Ni41MywzNTQuODgsNzczLjU2NjIsMzQxLjAyNTgsNzY3Ljg0NjQsMzUxLjU3NDksNzg2LjUzLDM1NC44OCIgc3R5bGU9InN0cm9rZTojMTgxODE4O3N0cm9rZS13aWR0aDoxLjA7Ii8+PC9nPjwhLS1saW5rIFJvb21BY2Nlc3NTdHJhdGVneSB0byBBY2Nlc3NTdHJhdGVneS0tPjxnIGlkPSJsaW5rX1Jvb21BY2Nlc3NTdHJhdGVneV9BY2Nlc3NTdHJhdGVneSI+PHBhdGggY29kZUxpbmU9IjEwMiIgZD0iTTg0MywxMDcuNzEgQzg0MywxNjYuODQgODQzLDI3Ny44OCA4NDMsMzM2LjkyICIgZmlsbD0ibm9uZSIgaWQ9IlJvb21BY2Nlc3NTdHJhdGVneS10by1BY2Nlc3NTdHJhdGVneSIgc3R5bGU9InN0cm9rZTojMTgxODE4O3N0cm9rZS13aWR0aDoxLjA7Ii8+PHBvbHlnb24gZmlsbD0ibm9uZSIgcG9pbnRzPSI4NDMsMzU0LjkyLDg0OSwzMzYuOTIsODM3LDMzNi45Miw4NDMsMzU0LjkyIiBzdHlsZT0ic3Ryb2tlOiMxODE4MTg7c3Ryb2tlLXdpZHRoOjEuMDsiLz48L2c+PCEtLWxpbmsgQWRtaW4gdG8gQ2FyZC0tPjxnIGlkPSJsaW5rX0FkbWluX0NhcmQiPjxwYXRoIGNvZGVMaW5lPSIxMDMiIGQ9Ik0yNTA4LjM1LDE0NS4wOCBDMjQyNy40LDE4Ny4yNyAyMzI3LjQ3MSwyMzkuMzQ3NSAyMjM3Ljk0MSwyODUuOTk3NSAiIGZpbGw9Im5vbmUiIGlkPSJBZG1pbi10by1DYXJkIiBzdHlsZT0ic3Ryb2tlOiMxODE4MTg7c3Ryb2tlLXdpZHRoOjEuMDsiLz48cG9seWdvbiBmaWxsPSIjMTgxODE4IiBwb2ludHM9IjIyMzIuNjIsMjg4Ljc3LDIyNDIuNDQ5OSwyODguMTU4NSwyMjM3LjA1NDIsMjg2LjQ1OTYsMjIzOC43NTMxLDI4MS4wNjM5LDIyMzIuNjIsMjg4Ljc3IiBzdHlsZT0ic3Ryb2tlOiMxODE4MTg7c3Ryb2tlLXdpZHRoOjEuMDsiLz48L2c+PCEtLWxpbmsgTG9nZ2VyIHRvIFRpbWVMb2dTZXJ2aWNlLS0+PGcgaWQ9ImxpbmtfTG9nZ2VyX1RpbWVMb2dTZXJ2aWNlIj48cGF0aCBjb2RlTGluZT0iMTA0IiBkPSJNMzkzNiw0MzMuMTggQzM5MzYsNDg3LjUgMzkzNiw1NTkuMTcgMzkzNiw2MDkuOTEgIiBmaWxsPSJub25lIiBpZD0iTG9nZ2VyLXRvLVRpbWVMb2dTZXJ2aWNlIiBzdHlsZT0ic3Ryb2tlOiMxODE4MTg7c3Ryb2tlLXdpZHRoOjEuMDsiLz48cG9seWdvbiBmaWxsPSJub25lIiBwb2ludHM9IjM5MzYsNjI3LjkxLDM5NDIsNjA5LjkxLDM5MzAsNjA5LjkxLDM5MzYsNjI3LjkxIiBzdHlsZT0ic3Ryb2tlOiMxODE4MTg7c3Ryb2tlLXdpZHRoOjEuMDsiLz48L2c+PCEtLWxpbmsgQXVkaXRTZXJ2aWNlIHRvIExvZ2dlci0tPjxnIGlkPSJsaW5rX0F1ZGl0U2VydmljZV9Mb2dnZXIiPjxwYXRoIGNvZGVMaW5lPSIxMDUiIGQ9Ik0zODI4LjIxLDExNS4xNCBDMzg1MC44OSwxNzIuMDQgMzg5MS4zMTg0LDI3My40MjY0IDM5MTUuNjA4NCwzMzQuMzY2NCAiIGZpbGw9Im5vbmUiIGlkPSJBdWRpdFNlcnZpY2UtdG8tTG9nZ2VyIiBzdHlsZT0ic3Ryb2tlOiMxODE4MTg7c3Ryb2tlLXdpZHRoOjEuMDsiLz48cG9seWdvbiBmaWxsPSIjMTgxODE4IiBwb2ludHM9IjM5MTcuODMsMzM5Ljk0LDM5MTguMjEzNCwzMzAuMDk4NiwzOTE1Ljk3ODcsMzM1LjI5NTQsMzkxMC43ODE5LDMzMy4wNjA3LDM5MTcuODMsMzM5Ljk0IiBzdHlsZT0ic3Ryb2tlOiMxODE4MTg7c3Ryb2tlLXdpZHRoOjEuMDsiLz48L2c+PCEtLWxpbmsgQ2FyZE1hbmFnZXIgdG8gQ2FyZC0tPjxnIGlkPSJsaW5rX0NhcmRNYW5hZ2VyX0NhcmQiPjxwYXRoIGNvZGVMaW5lPSIxMDYiIGQ9Ik0zMjI1LjQsMTA3LjU3IEMyOTkyLjI3LDE2Mi41NSAyNTA3LjMxOTgsMjc2LjkzMjYgMjIzOC41MTk4LDM0MC4zMzI2ICIgZmlsbD0ibm9uZSIgaWQ9IkNhcmRNYW5hZ2VyLXRvLUNhcmQiIHN0eWxlPSJzdHJva2U6IzE4MTgxODtzdHJva2Utd2lkdGg6MS4wOyIvPjxwb2x5Z29uIGZpbGw9IiMxODE4MTgiIHBvaW50cz0iMjIzMi42OCwzNDEuNzEsMjI0Mi4zNTc5LDM0My41MzcxLDIyMzcuNTQ2NSwzNDAuNTYyMiwyMjQwLjUyMTQsMzM1Ljc1MDcsMjIzMi42OCwzNDEuNzEiIHN0eWxlPSJzdHJva2U6IzE4MTgxODtzdHJva2Utd2lkdGg6MS4wOyIvPjwvZz48IS0tbGluayBVc2VyTG9nRGVjb3JhdG9yIHRvIExvZ2dlci0tPjxnIGlkPSJsaW5rX1VzZXJMb2dEZWNvcmF0b3JfTG9nZ2VyIj48cGF0aCBjb2RlTGluZT0iMTA3IiBkPSJNNDA0MC44NSwxMjIuNTIgQzQwMTcuNiwxODAuODUgMzk3OS43MzIzLDI3NS44MDY3IDM5NTYuNDQyMywzMzQuMjE2NyAiIGZpbGw9Im5vbmUiIGlkPSJVc2VyTG9nRGVjb3JhdG9yLXRvLUxvZ2dlciIgc3R5bGU9InN0cm9rZTojMTgxODE4O3N0cm9rZS13aWR0aDoxLjA7Ii8+PHBvbHlnb24gZmlsbD0iIzE4MTgxOCIgcG9pbnRzPSIzOTU0LjIyLDMzOS43OSwzOTYxLjI2ODksMzMyLjkxMTYsMzk1Ni4wNzE5LDMzNS4xNDU2LDM5NTMuODM3OSwzMjkuOTQ4NiwzOTU0LjIyLDMzOS43OSIgc3R5bGU9InN0cm9rZTojMTgxODE4O3N0cm9rZS13aWR0aDoxLjA7Ii8+PC9nPjwhLS1TUkM9W2xMUlJSazhtNDd0RkxfWWo4Q1dGZUFlSVdnczRIRWJnUVZWVDk0RGdEUjVQc3UzT294X2xzNzVZRW1kUnJNeExGYjFiUGRuY3ZpcDVsWTVCczNDRTkya2ZLZzBJLXZfQ2ltb0tNV1lrZklaOVp1SldOcWdlYk13cmYxZ0FveW5QRFRfRUFBQ29kdjQ1X1pnMVBYTWlIUjQ1VU04UHBDWEp6NnNEOWFKMmpvQ2VOSUVFemdLR1NXcWRBNlM0dUhhbGZhR0FLTXNFckd2YThubEZvNHc4NFlYRlZZSzl1bmhhZGNSRzJTajVGbzdQMnNJbHBlNEZTYWgtbkhkVEFPSkZUNHNSMU1mUDRjU0VTYUNoUTh3NnlkYzFPV21yODZrNWFRb1BxaFVyelBySjdIM3VCNG9PNEdld1BJVm1tT0lMaUtjZTBSRzlBSzBfRGQ2RG5YN2NYQVhHc0dpVmhLLTJ2SHFXSkNKV0RBYnU0QUU4S2tzVE56WWFwVWMxRzVNaDctQWNYX05QaUpJS0t3bGhLWGNaQzNNdGQ4eDZDUWlNbXdhd2hGVjJjMFZ5TnF5aWloZlVpWWs0NlBDaHNDeGN3TkJlNXZUb01idy1teEVZVFNLaURCUW02X0l5T1puZXRfXzEtYkdUSWQ0MVUyVXVocW1uQlVHeGVUc1JBVi0wcEwxeC11OU03LVJDcmowbFFWRGJ2WVJVQ2FrZ3dPdWd4RTQ3VWhYVHVSOGlHNHdqeHdRQlE5d1Jwb1lnbC1ySWw0RnlPVVR6NzVtM1BpRVZuMmpxN0NHV2JTWlBfakFCV1NGdmlSa0tsQkhQQ3JPb1ZwRFNwemVuUHpmVEdjcm5JYjZDQWFJV25WTnJYdFROVnlQUk1ER1lpTXFyNjVVUVNkRmpyR2VGaXQ4UTJuTmdfWDEzd29NLUd0cmxLTHVwaTE3ZGNFTHVpUktSUXdrZkZmZS1URVYyM1VVNmdfTGZhMXZtbzdud3c1MDJUaFVqY0VZTklDSnJ3UXhYZ01yQ0N5ajFkaFBaTWZfRjJZSmNrT0hDdTFXOXBzamY2T2tPSXliSDNMb3lSbjV3cXhvMDk5SEtDeTdMMnBrZTk3dTFmVWJUenhOSkR4MlgtdU1RZlotVEI1Z0NOWG1rRTJ5VE1iSE1zXzRfaTZBNnBFaGJxOFJkc2pEUVRYdllxSzJPMHV4UmlFdWpKZ3ltX2kxbF0tLT48L2c+PC9zdmc+;" vertex="1" parent="1">
            <mxGeometry x="-1670" y="60" width="4171" height="712" as="geometry" />
          </mxCell>
        </UserObject>
      </root>
    </mxGraphModel>
  </diagram>
</mxfile>
